<svg xmlns="http://www.w3.org/2000/svg" viewBox="0 0 1387.31 450.88"><defs><style>.cls-1,.cls-8{fill:#fff;}.cls-1,.cls-2,.cls-3,.cls-4,.cls-5,.cls-6,.cls-7{stroke:#429771;}.cls-1,.cls-2,.cls-4,.cls-5,.cls-6,.cls-7{stroke-miterlimit:10;stroke-width:3px;}.cls-2{fill:#d8e7ef;}.cls-3,.cls-7{fill:#41a8c8;}.cls-3{stroke-linejoin:bevel;}.cls-4{fill:#b5d5e4;}.cls-5{fill:#92c4da;}.cls-6{fill:#6eb5d0;}</style></defs><title>Asset 32</title><g id="Layer_2" data-name="Layer 2"><g id="Layer_1-2" data-name="Layer 1"><path class="cls-1" d="M145.47,53.4l-20.06,56.07,39.45,8.39Zm37,124.81-9.36-31.34-56.39-12-9.58,27.32-32.32-6.87L132.55,1.74,156.84,6.9l57.95,178.18Z"/><path class="cls-1" d="M299.71,203.13V129.75c0-16.54-10-24.26-19.17-26.21s-19.39,1.47-19.39,18v73.38l-29-6.16V67.41l28.31,6V84.6c7.58-6.77,18.28-8.69,29-6.42a47,47,0,0,1,27.42,16.55c9.36,11.77,11.81,23.71,11.81,37v77.58Z"/><path class="cls-1" d="M403.57,129.69C386.19,126,384,140.43,384,160.23s2.23,35.42,19.61,39.12,19.84-10.93,19.84-30.73S421,133.39,403.57,129.69Zm20.51,99.87V218.15c-8,7.61-16.5,9.3-28.76,6.7-11.36-2.42-22.06-8.88-28.52-17C355.21,193.26,355,172.25,355,154.08s.23-38.86,11.82-48.51c6.46-5.38,16.93-7.35,28.3-4.93,11.81,2.51,20.73,7.67,28.31,18.13V63.56l29,6.16V235.58Z"/><path class="cls-1" d="M548,167.62c-4.46-5.61-8.25-9-15.38-10.5-8.92-1.89-18.72,3-18.72,18.39v73.14l-29-6.15V121.13l28.31,6v11.64c5.57-5.8,16.71-9.49,29.19-6.84,11.37,2.42,19.4,7.15,27.42,17.25Z"/><path class="cls-1" d="M643.61,191.2a26.53,26.53,0,0,0-19.39-16.7c-9.8-2.08-16.27,1.9-19.39,8.46a30.51,30.51,0,0,0-2.67,12.47l44.13,9.38A39,39,0,0,0,643.61,191.2Zm-41.45,25c0,15.6,9.14,29,25.41,32.42,12.7,2.7,18.94.3,26.3-5.83l17.6,21.68c-11.81,9.84-23.18,14.18-44.13,9.73-27.41-5.83-53.71-24.47-53.71-73.62,0-39.6,20.5-57.61,50.59-51.21,32.32,6.87,50.6,35.45,50.6,68.76v13.51Z"/><path class="cls-1" d="M816.35,312.94l-23.85-5.07-24.3-81.34-24.29,71-23.85-5.07-35.66-129,30.76,6.54,18.72,79,23.63-70,21.17,4.5,23.85,80.08,18.72-71,30.53,6.49Z"/><path class="cls-1" d="M913.3,333.55V307.46L981.05,211,916.2,197.19V168.31l101.41,21.55v25.63l-68,96.9,68,14.45v28.88Z"/><path class="cls-1" d="M1109.43,375.24V301.16c0-16.07-9.8-23.51-18.94-25.46s-18.72,1.61-18.72,17.46v74.07l-29-6.16V195.21l29,6.16v55.68c7.8-6.73,17.6-8.84,27.86-6.66,25.4,5.4,38.78,26.88,38.78,52.5V381.4Z"/><path class="cls-1" d="M1227.34,310.15a22.82,22.82,0,0,0-13.6-8.25c-5.8-1.23-10-.27-13.37,2.52-6,5-6.69,15.35-6.69,27.93s.67,23.43,6.69,31a22.13,22.13,0,0,0,13.37,8.2c5.79,1.24,10.25.32,13.6-2.46,6-5,6.68-15.59,6.68-28.17S1233.35,317.72,1227.34,310.15Zm22.51,81.42c-7.14,6.41-18.95,10.89-36.11,7.24a59.87,59.87,0,0,1-35.88-22.54c-10.48-13.64-13.15-27.95-13.15-50.08,0-21.9,2.67-35.07,13.15-44.26,7.13-6.41,18.72-10.93,35.88-7.28a60.51,60.51,0,0,1,36.11,22.58c10.47,13.64,13.15,27.95,13.15,49.85C1263,369.21,1260.32,382.39,1249.85,391.57Z"/><path class="cls-1" d="M1357.5,428V416.79c-7.58,6.77-18.28,8.69-29,6.42a47,47,0,0,1-27.42-16.55c-9.36-11.77-11.81-23.71-11.81-37V292.1l29,6.16v73.38c0,16.54,10,24.26,19.17,26.21s19.39-1.47,19.39-18V306.46l29,6.16V434Z"/><path class="cls-2" d="M130.91,56.41l-20.06,56.07,39.45,8.39Zm37,124.81-9.36-31.34-56.39-12L92.58,165.2l-32.32-6.86L118,4.74l24.29,5.17,57.95,178.18Z"/><path class="cls-2" d="M285.15,206.14V132.76c0-16.54-10-24.27-19.17-26.21s-19.39,1.47-19.39,18v73.38l-29-6.16V70.41l28.31,6V87.61c7.58-6.77,18.28-8.69,29-6.42a47,47,0,0,1,27.42,16.54c9.36,11.78,11.81,23.71,11.81,37v77.57Z"/><path class="cls-2" d="M389,132.7c-17.38-3.69-19.61,10.74-19.61,30.54s2.23,35.42,19.61,39.12,19.84-10.93,19.84-30.73S406.39,136.4,389,132.7Zm20.5,99.87V221.16c-8,7.61-16.49,9.3-28.75,6.7-11.36-2.42-22.06-8.89-28.53-17-11.59-14.58-11.81-35.59-11.81-53.76s.22-38.86,11.81-48.51c6.47-5.38,16.94-7.35,28.31-4.93,11.81,2.51,20.73,7.67,28.31,18.13V66.57l29,6.16V238.59Z"/><path class="cls-2" d="M533.44,170.62c-4.46-5.6-8.25-9-15.38-10.49-8.92-1.89-18.72,3-18.72,18.39v73.14l-29-6.15V124.14l28.31,6V141.8c5.57-5.8,16.71-9.49,29.19-6.84,11.37,2.42,19.39,7.15,27.42,17.24Z"/><path class="cls-2" d="M629.05,194.21a26.51,26.51,0,0,0-19.39-16.7c-9.8-2.09-16.27,1.9-19.39,8.46a30.51,30.51,0,0,0-2.67,12.47l44.13,9.38A39.25,39.25,0,0,0,629.05,194.21Zm-41.45,25c0,15.6,9.14,29,25.41,32.42,12.7,2.7,18.94.3,26.3-5.83l17.6,21.68c-11.81,9.84-23.18,14.18-44.13,9.73-27.41-5.83-53.71-24.47-53.71-73.62,0-39.6,20.5-57.61,50.59-51.21,32.32,6.87,50.6,35.45,50.6,68.76v13.51Z"/><polygon class="cls-2" points="801.79 315.95 777.94 310.88 753.64 229.54 729.35 300.56 705.5 295.49 669.84 166.54 700.6 173.08 719.32 252.07 742.95 182.08 764.12 186.58 787.97 266.66 806.69 195.63 837.22 202.12 801.79 315.95"/><polygon class="cls-2" points="898.74 336.56 898.74 310.47 966.49 213.99 901.63 200.2 901.63 171.31 1003.05 192.87 1003.05 218.49 935.07 315.39 1003.05 329.85 1003.05 358.73 898.74 336.56"/><path class="cls-2" d="M1094.87,378.25V304.17c0-16.07-9.8-23.52-18.94-25.46s-18.72,1.61-18.72,17.46v74.07l-29-6.16V198.22l29,6.16v55.68c7.8-6.73,17.6-8.84,27.86-6.66,25.4,5.4,38.78,26.88,38.78,52.5v78.51Z"/><path class="cls-2" d="M1212.77,313.16a22.76,22.76,0,0,0-13.59-8.25c-5.8-1.23-10-.27-13.37,2.52-6,5-6.69,15.35-6.69,27.93s.67,23.43,6.69,31a22.13,22.13,0,0,0,13.37,8.2c5.79,1.23,10.25.32,13.59-2.47,6-5,6.69-15.58,6.69-28.16S1218.79,320.73,1212.77,313.16Zm22.52,81.42c-7.14,6.41-19,10.89-36.11,7.24a59.87,59.87,0,0,1-35.88-22.54c-10.48-13.64-13.15-27.95-13.15-50.08,0-21.9,2.67-35.08,13.15-44.26,7.13-6.41,18.72-10.93,35.88-7.28a60.51,60.51,0,0,1,36.11,22.58c10.47,13.64,13.15,27.95,13.15,49.85C1248.44,372.22,1245.76,385.4,1235.29,394.58Z"/><path class="cls-2" d="M1342.94,431V419.8c-7.58,6.77-18.28,8.69-29,6.42a47,47,0,0,1-27.42-16.55c-9.36-11.77-11.81-23.71-11.81-37V295.11l29,6.16v73.38c0,16.54,10,24.26,19.17,26.21s19.39-1.47,19.39-18V309.47l29,6.16V437Z"/><path class="cls-3" d="M141.41,10.74"/><path class="cls-4" d="M116.35,59.42,96.29,115.49l39.45,8.39Zm37,124.81L144,152.89l-56.39-12L78,168.21,45.7,161.34,103.43,7.75l24.29,5.17L185.67,191.1Z"/><path class="cls-4" d="M270.59,209.15V135.77c0-16.54-10-24.27-19.17-26.21S232,111,232,127.57V201l-29-6.16V73.42l28.31,6V90.62c7.58-6.77,18.27-8.69,29-6.42a47,47,0,0,1,27.42,16.54c9.36,11.78,11.81,23.71,11.81,37V215.3Z"/><path class="cls-4" d="M374.45,135.71c-17.39-3.69-19.61,10.74-19.61,30.54s2.22,35.42,19.61,39.12,19.84-10.93,19.84-30.73S391.83,139.41,374.45,135.71ZM395,235.58V224.17c-8,7.61-16.49,9.3-28.75,6.7-11.36-2.42-22.06-8.89-28.53-17-11.59-14.58-11.81-35.6-11.81-53.77s.22-38.85,11.81-48.5c6.47-5.38,16.94-7.35,28.31-4.93,11.81,2.51,20.73,7.67,28.31,18.13V69.58l29,6.16V241.6Z"/><path class="cls-4" d="M518.88,173.63c-4.46-5.6-8.25-9-15.38-10.49-8.92-1.89-18.73,3-18.73,18.39v73.14l-29-6.16V127.15l28.31,6v11.65c5.57-5.8,16.71-9.49,29.19-6.84,11.37,2.42,19.39,7.15,27.42,17.24Z"/><path class="cls-4" d="M614.49,197.22a26.51,26.51,0,0,0-19.39-16.7c-9.81-2.09-16.27,1.9-19.39,8.45A30.6,30.6,0,0,0,573,201.45l44.13,9.38A39.48,39.48,0,0,0,614.49,197.22Zm-41.45,25c0,15.61,9.13,29,25.4,32.43,12.71,2.7,18.95.3,26.3-5.83l17.61,21.68c-11.81,9.84-23.18,14.18-44.13,9.72-27.41-5.82-53.71-24.46-53.71-73.61,0-39.6,20.5-57.61,50.59-51.21,32.32,6.87,50.6,35.45,50.6,68.76v13.51Z"/><polygon class="cls-4" points="787.23 318.96 763.38 313.89 739.08 232.55 714.79 303.56 690.94 298.5 655.28 169.55 686.04 176.09 704.76 255.07 728.38 185.09 749.56 189.59 773.41 269.67 792.13 198.64 822.66 205.13 787.23 318.96"/><polygon class="cls-4" points="884.18 339.57 884.18 313.48 951.93 217 887.07 203.21 887.07 174.32 988.49 195.88 988.49 221.5 920.51 318.4 988.49 332.85 988.49 361.74 884.18 339.57"/><path class="cls-4" d="M1080.31,381.26V307.18c0-16.07-9.8-23.52-18.94-25.46s-18.72,1.61-18.72,17.45v74.08l-29-6.16V201.23l29,6.16v55.68c7.8-6.73,17.6-8.84,27.86-6.66,25.4,5.4,38.78,26.88,38.78,52.5v78.51Z"/><path class="cls-4" d="M1198.21,316.17a22.76,22.76,0,0,0-13.59-8.25c-5.8-1.23-10-.27-13.37,2.52-6,5-6.69,15.35-6.69,27.93s.67,23.43,6.69,31a22.13,22.13,0,0,0,13.37,8.2c5.79,1.23,10.25.32,13.59-2.47,6-5,6.69-15.58,6.69-28.16S1204.23,323.74,1198.21,316.17Zm22.51,81.42c-7.13,6.41-18.94,10.88-36.1,7.24a59.93,59.93,0,0,1-35.89-22.54c-10.47-13.64-13.15-28-13.15-50.08,0-21.9,2.68-35.08,13.15-44.26,7.14-6.41,18.73-10.93,35.89-7.29a60.51,60.51,0,0,1,36.1,22.59c10.48,13.64,13.15,27.95,13.15,49.85C1233.87,375.23,1231.2,388.41,1220.72,397.59Z"/><path class="cls-4" d="M1328.38,434V422.8c-7.58,6.78-18.28,8.7-29,6.43A46.94,46.94,0,0,1,1272,412.68c-9.36-11.77-11.81-23.71-11.81-37V298.12l29,6.16v73.38c0,16.54,10,24.26,19.17,26.21s19.39-1.47,19.39-18V312.48l29,6.16V440Z"/><path class="cls-3" d="M126.85,13.74"/><path class="cls-5" d="M101.79,62.43,81.73,118.5l39.45,8.39Zm37,124.81-9.36-31.35L73,143.91l-9.58,27.31-32.32-6.87L88.87,10.76l24.29,5.17,58,178.18Z"/><path class="cls-5" d="M256,212.15V138.78c0-16.54-10-24.27-19.16-26.21s-19.39,1.47-19.39,18V204l-29-6.16V76.43l28.31,6V93.63c7.58-6.77,18.27-8.69,29-6.42a46.93,46.93,0,0,1,27.42,16.54c9.36,11.78,11.81,23.71,11.81,37v77.57Z"/><path class="cls-5" d="M359.89,138.72c-17.39-3.69-19.61,10.74-19.61,30.54s2.22,35.42,19.61,39.11,19.83-10.92,19.83-30.72S377.27,142.42,359.89,138.72Zm20.5,99.87V227.18c-8,7.61-16.49,9.3-28.75,6.7-11.36-2.42-22.06-8.89-28.53-17-11.59-14.57-11.81-35.59-11.81-53.76s.22-38.85,11.81-48.5c6.47-5.38,16.94-7.35,28.31-4.93,11.81,2.51,20.73,7.66,28.3,18.13V72.59l29,6.16V244.61Z"/><path class="cls-5" d="M504.32,176.64c-4.46-5.6-8.25-9-15.38-10.49-8.92-1.89-18.73,3-18.73,18.39v73.14l-29-6.16V130.16l28.31,6v11.65c5.57-5.8,16.71-9.49,29.19-6.84,11.37,2.42,19.39,7.15,27.42,17.24Z"/><path class="cls-5" d="M599.93,200.23a26.51,26.51,0,0,0-19.39-16.7c-9.81-2.09-16.27,1.9-19.39,8.45a30.6,30.6,0,0,0-2.67,12.48l44.13,9.38A39.48,39.48,0,0,0,599.93,200.23Zm-41.45,25c0,15.61,9.13,29,25.4,32.43,12.71,2.7,19,.3,26.3-5.83l17.61,21.68c-11.81,9.84-23.18,14.18-44.13,9.72C556.25,277.37,530,258.73,530,209.58c0-39.6,20.5-57.61,50.59-51.21,32.32,6.87,50.59,35.44,50.59,68.76v13.51Z"/><polygon class="cls-5" points="772.66 321.97 748.82 316.9 724.52 235.56 700.23 306.57 676.38 301.5 640.72 172.56 671.48 179.09 690.2 258.08 713.82 188.1 735 192.6 758.85 272.68 777.57 201.65 808.1 208.13 772.66 321.97"/><polygon class="cls-5" points="869.62 342.58 869.62 316.49 937.37 220 872.51 206.22 872.51 177.33 973.92 198.89 973.92 224.51 905.95 321.41 973.92 335.86 973.92 364.75 869.62 342.58"/><path class="cls-5" d="M1065.75,384.27V310.19c0-16.07-9.81-23.52-18.94-25.46s-18.73,1.61-18.73,17.45v74.08l-29-6.16V204.24l29,6.16v55.68c7.81-6.73,17.61-8.84,27.86-6.66,25.41,5.4,38.79,26.88,38.79,52.5v78.51Z"/><path class="cls-5" d="M1183.65,319.18a22.76,22.76,0,0,0-13.59-8.25c-5.8-1.23-10-.27-13.38,2.51-6,5-6.68,15.36-6.68,27.93s.67,23.44,6.68,31a22.19,22.19,0,0,0,13.38,8.2c5.79,1.23,10.25.32,13.59-2.47,6-5,6.69-15.58,6.69-28.16S1189.67,326.75,1183.65,319.18Zm22.51,81.42c-7.13,6.41-18.94,10.88-36.1,7.24a59.93,59.93,0,0,1-35.89-22.54c-10.47-13.64-13.15-27.95-13.15-50.08,0-21.9,2.68-35.08,13.15-44.26,7.14-6.41,18.73-10.93,35.89-7.29a60.51,60.51,0,0,1,36.1,22.59c10.48,13.64,13.15,27.95,13.15,49.85C1219.31,378.24,1216.64,391.41,1206.16,400.6Z"/><path class="cls-5" d="M1313.82,437V425.81c-7.58,6.78-18.28,8.7-29,6.42a46.88,46.88,0,0,1-27.41-16.54c-9.36-11.77-11.81-23.71-11.81-37V301.13l29,6.16v73.38c0,16.54,10,24.26,19.17,26.2s19.39-1.46,19.39-18V315.49l29,6.16V443Z"/><path class="cls-3" d="M112.28,16.75"/><path class="cls-6" d="M87.23,65.44,67.17,121.51l39.45,8.39Zm37,124.8-9.36-31.34-56.39-12L48.9,174.23l-32.32-6.87L74.3,13.77l24.3,5.17,58,178.17Z"/><path class="cls-6" d="M241.46,215.16V141.78c0-16.54-10-24.26-19.16-26.2s-19.39,1.47-19.39,18V207l-29-6.16V79.44l28.31,6V96.64c7.58-6.77,18.27-8.69,29-6.42a46.93,46.93,0,0,1,27.42,16.54c9.36,11.78,11.81,23.71,11.81,37v77.57Z"/><path class="cls-6" d="M345.33,141.73c-17.39-3.69-19.62,10.74-19.62,30.54s2.23,35.42,19.62,39.11,19.83-10.92,19.83-30.72S362.71,145.43,345.33,141.73Zm20.5,99.87V230.18c-8,7.62-16.49,9.31-28.75,6.71-11.37-2.42-22.06-8.89-28.53-17-11.59-14.57-11.81-35.59-11.81-53.76s.22-38.85,11.81-48.5c6.47-5.38,16.94-7.35,28.31-4.93,11.81,2.51,20.73,7.66,28.3,18.13V75.6l29,6.16V247.62Z"/><path class="cls-6" d="M489.75,179.65c-4.45-5.6-8.24-9-15.37-10.49-8.92-1.89-18.73,3-18.73,18.38v73.15l-29-6.16V133.17l28.3,6v11.65c5.58-5.8,16.72-9.49,29.2-6.84,11.37,2.42,19.39,7.15,27.42,17.24Z"/><path class="cls-6" d="M585.37,203.24A26.51,26.51,0,0,0,566,186.54c-9.81-2.09-16.27,1.9-19.39,8.45a30.76,30.76,0,0,0-2.68,12.48l44.14,9.38A39.48,39.48,0,0,0,585.37,203.24Zm-41.46,25c0,15.61,9.14,29,25.41,32.43,12.71,2.7,18.95.3,26.3-5.83l17.61,21.68c-11.81,9.84-23.18,14.18-44.13,9.72-27.41-5.82-53.71-24.46-53.71-73.61,0-39.6,20.5-57.61,50.59-51.21,32.32,6.87,50.59,35.44,50.59,68.76v13.51Z"/><polygon class="cls-6" points="758.1 324.98 734.25 319.91 709.96 238.57 685.67 309.58 661.82 304.51 626.16 175.57 656.91 182.1 675.64 261.09 699.26 191.1 720.44 195.61 744.28 275.69 763.01 204.65 793.54 211.15 758.1 324.98"/><polygon class="cls-6" points="855.06 345.59 855.06 319.5 922.81 223.01 857.95 209.23 857.95 180.34 959.36 201.9 959.36 227.52 891.39 324.42 959.36 338.87 959.36 367.76 855.06 345.59"/><path class="cls-6" d="M1051.19,387.28V313.2c0-16.08-9.81-23.52-18.94-25.46s-18.73,1.61-18.73,17.45v74.08l-29-6.16V207.25l29,6.16v55.68c7.8-6.73,17.61-8.84,27.86-6.66,25.41,5.4,38.79,26.88,38.79,52.5v78.51Z"/><path class="cls-6" d="M1169.09,322.19a22.76,22.76,0,0,0-13.59-8.25c-5.8-1.23-10-.27-13.38,2.51-6,5-6.68,15.35-6.68,27.93s.67,23.44,6.68,31a22.23,22.23,0,0,0,13.38,8.2c5.79,1.23,10.25.32,13.59-2.47,6-5,6.69-15.58,6.69-28.16S1175.11,329.75,1169.09,322.19Zm22.51,81.42c-7.13,6.41-18.94,10.88-36.1,7.24a59.93,59.93,0,0,1-35.89-22.54c-10.47-13.64-13.15-27.95-13.15-50.09,0-21.89,2.68-35.07,13.15-44.26,7.14-6.4,18.73-10.92,35.89-7.28a60.51,60.51,0,0,1,36.1,22.59c10.48,13.64,13.15,28,13.15,49.85C1204.75,381.25,1202.08,394.42,1191.6,403.61Z"/><path class="cls-6" d="M1299.26,440V428.82c-7.58,6.78-18.28,8.7-29,6.42a46.88,46.88,0,0,1-27.41-16.54c-9.36-11.77-11.81-23.71-11.81-37V304.14l29,6.16v73.38c0,16.54,10,24.26,19.17,26.2s19.39-1.47,19.39-18V318.5l29,6.15V446Z"/><path class="cls-3" d="M97.72,19.76"/><path class="cls-7" d="M72.67,68.45,52.61,124.52l39.45,8.38Zm37,124.8-9.36-31.34-56.39-12-9.58,27.31L2,170.37,59.74,16.78,84,22l58,178.17Z"/><path class="cls-7" d="M226.9,218.17V144.79c0-16.54-10-24.26-19.16-26.2s-19.4,1.47-19.4,18V210l-29-6.16V82.45l28.31,6V99.65c7.57-6.78,18.27-8.69,29-6.42a46.88,46.88,0,0,1,27.41,16.54c9.37,11.78,11.82,23.71,11.82,37v77.57Z"/><path class="cls-7" d="M330.77,144.74c-17.39-3.7-19.62,10.74-19.62,30.54s2.23,35.42,19.62,39.11,19.83-10.92,19.83-30.72S348.15,148.44,330.77,144.74Zm20.5,99.87V233.19c-8,7.62-16.49,9.31-28.75,6.7-11.37-2.41-22.06-8.88-28.53-17-11.59-14.58-11.81-35.59-11.81-53.76s.22-38.85,11.81-48.5c6.47-5.38,16.94-7.35,28.31-4.93,11.81,2.51,20.73,7.66,28.3,18.12V78.61l29,6.15V250.63Z"/><path class="cls-7" d="M475.19,182.66c-4.45-5.61-8.24-9-15.38-10.49-8.91-1.9-18.72,3-18.72,18.38V263.7l-29-6.16V136.17l28.3,6v11.65c5.58-5.8,16.72-9.49,29.2-6.84C481,149.42,489,154.15,497,164.24Z"/><path class="cls-7" d="M570.81,206.25a26.51,26.51,0,0,0-19.39-16.7c-9.81-2.09-16.27,1.89-19.39,8.45a30.76,30.76,0,0,0-2.68,12.48l44.13,9.38A39.2,39.2,0,0,0,570.81,206.25Zm-41.46,25c0,15.61,9.14,29,25.41,32.43,12.71,2.7,19,.29,26.3-5.83l17.61,21.68c-11.81,9.84-23.18,14.18-44.13,9.72-27.41-5.83-53.71-24.46-53.71-73.61,0-39.6,20.5-57.61,50.59-51.21,32.32,6.87,50.59,35.44,50.59,68.76v13.51Z"/><path class="cls-7" d="M743.54,328l-23.85-5.07L695.4,241.58l-24.29,71-23.85-5.07L611.6,178.58l30.75,6.53,18.73,79,23.62-70,21.18,4.5,23.84,80.08,18.73-71L779,214.15Z"/><path class="cls-7" d="M840.5,348.6V322.51L908.25,226l-64.86-13.78V183.35L944.8,204.91v25.62l-68,96.9,68,14.45v28.89Z"/><path class="cls-7" d="M1036.63,390.29V316.21c0-16.08-9.81-23.52-19-25.46S999,292.36,999,308.2v74.08l-29-6.16V210.26l29,6.16v55.67c7.8-6.72,17.61-8.83,27.86-6.65,25.41,5.4,38.78,26.88,38.78,52.5v78.5Z"/><path class="cls-7" d="M1154.53,325.19a22.8,22.8,0,0,0-13.59-8.24c-5.8-1.24-10-.27-13.38,2.51-6,5-6.68,15.35-6.68,27.93s.67,23.44,6.68,31a22.23,22.23,0,0,0,13.38,8.2c5.79,1.23,10.25.32,13.59-2.47,6-5,6.69-15.58,6.69-28.16S1160.55,332.76,1154.53,325.19ZM1177,406.62c-7.13,6.4-18.94,10.88-36.1,7.23a59.89,59.89,0,0,1-35.89-22.53c-10.47-13.64-13.15-27.95-13.15-50.09,0-21.89,2.68-35.07,13.15-44.26,7.14-6.4,18.72-10.93,35.89-7.28a60.51,60.51,0,0,1,36.1,22.59c10.48,13.64,13.15,28,13.15,49.85C1190.19,384.26,1187.52,397.43,1177,406.62Z"/><path class="cls-7" d="M1284.7,443V431.83c-7.58,6.78-18.28,8.7-29,6.42a46.88,46.88,0,0,1-27.41-16.54c-9.36-11.77-11.81-23.71-11.81-37V307.15l29,6.16v73.38c0,16.54,10,24.26,19.17,26.2s19.39-1.47,19.39-18V321.5l29,6.16V449Z"/><path class="cls-3" d="M83.16,22.77"/><path class="cls-8" d="M109.67,193.25l-9.36-31.34-56.39-12-9.58,27.31L2,170.37,59.74,16.78,84,22l58,178.17Zm-37-124.8L52.61,124.52l39.45,8.38Z"/><path class="cls-8" d="M226.9,218.17V144.79c0-16.54-10-24.26-19.16-26.2s-19.4,1.47-19.4,18V210l-29-6.16V82.45l28.31,6V99.65c7.57-6.78,18.27-8.69,29-6.42a46.88,46.88,0,0,1,27.41,16.54c9.37,11.78,11.82,23.71,11.82,37v77.57Z"/><path class="cls-8" d="M351.27,244.61V233.19c-8,7.62-16.49,9.31-28.75,6.7-11.37-2.41-22.06-8.88-28.53-17-11.59-14.58-11.81-35.59-11.81-53.76s.22-38.85,11.81-48.5c6.47-5.38,16.94-7.35,28.31-4.93,11.81,2.51,20.73,7.66,28.3,18.12V78.61l29,6.15V250.63Zm-20.5-99.87c-17.39-3.7-19.62,10.74-19.62,30.54s2.23,35.42,19.62,39.11,19.83-10.92,19.83-30.72S348.15,148.44,330.77,144.74Z"/><path class="cls-8" d="M475.19,182.66c-4.45-5.61-8.24-9-15.38-10.49-8.91-1.9-18.72,3-18.72,18.38V263.7l-29-6.16V136.17l28.3,6v11.65c5.58-5.8,16.72-9.49,29.2-6.84C481,149.42,489,154.15,497,164.24Z"/><path class="cls-8" d="M529.35,231.21c0,15.61,9.14,29,25.41,32.43,12.71,2.7,19,.29,26.3-5.83l17.61,21.68c-11.81,9.84-23.18,14.18-44.13,9.72-27.41-5.83-53.71-24.46-53.71-73.61,0-39.6,20.5-57.61,50.59-51.21,32.32,6.87,50.59,35.44,50.59,68.76v13.51Zm41.46-25a26.51,26.51,0,0,0-19.39-16.7c-9.81-2.09-16.27,1.89-19.39,8.45a30.76,30.76,0,0,0-2.68,12.48l44.13,9.38A39.2,39.2,0,0,0,570.81,206.25Z"/><path class="cls-8" d="M743.54,328l-23.85-5.07L695.4,241.58l-24.29,71-23.85-5.07L611.6,178.58l30.75,6.53,18.73,79,23.62-70,21.18,4.5,23.84,80.08,18.73-71L779,214.15Z"/><path class="cls-8" d="M840.5,348.6V322.51L908.25,226l-64.86-13.78V183.35L944.8,204.91v25.62l-68,96.9,68,14.45v28.89Z"/><path class="cls-8" d="M1036.63,390.29V316.21c0-16.08-9.81-23.52-19-25.46S999,292.36,999,308.2v74.08l-29-6.16V210.26l29,6.16v55.67c7.8-6.72,17.61-8.83,27.86-6.65,25.41,5.4,38.78,26.88,38.78,52.5v78.5Z"/><path class="cls-8" d="M1177,406.62c-7.13,6.4-18.94,10.88-36.1,7.23a59.89,59.89,0,0,1-35.89-22.53c-10.47-13.64-13.15-27.95-13.15-50.09,0-21.89,2.68-35.07,13.15-44.26,7.14-6.4,18.72-10.93,35.89-7.28a60.51,60.51,0,0,1,36.1,22.59c10.48,13.64,13.15,28,13.15,49.85C1190.19,384.26,1187.52,397.43,1177,406.62Zm-22.51-81.43a22.8,22.8,0,0,0-13.59-8.24c-5.8-1.24-10-.27-13.38,2.51-6,5-6.68,15.35-6.68,27.93s.67,23.44,6.68,31a22.23,22.23,0,0,0,13.38,8.2c5.79,1.23,10.25.32,13.59-2.47,6-5,6.69-15.58,6.69-28.16S1160.55,332.76,1154.53,325.19Z"/><path class="cls-8" d="M1313,327.66V449l-28.3-6V431.83c-7.58,6.78-18.28,8.7-29,6.42a46.88,46.88,0,0,1-27.41-16.54c-9.36-11.77-11.81-23.71-11.81-37V307.15l29,6.16v73.38c0,16.54,10,24.26,19.17,26.2s19.39-1.47,19.39-18V321.5l19.88,4.23Z"/><polygon class="cls-8" points="969.1 320.61 942.88 315.04 969.53 277.06 971.37 288.36 956.38 309.73 970.76 312.79 969.1 320.61"/></g></g></svg>