<svg xmlns="http://www.w3.org/2000/svg" viewBox="0 0 30 1097.5"><defs><style>.cls-1{fill:#684899;}</style></defs><title>Asset 33</title><g id="Layer_2" data-name="Layer 2"><g id="Layer_1-2" data-name="Layer 1"><rect class="cls-1" x="4.39" y="1071.89" width="21.21" height="21.21" transform="translate(-761.05 327.66) rotate(-45)"/><rect class="cls-1" x="4.64" y="1042.14" width="20.72" height="20.72" transform="translate(-739.84 318.88) rotate(-45)"/><rect class="cls-1" x="4.88" y="1012.38" width="20.23" height="20.23" transform="translate(-718.62 310.09) rotate(-45)"/><rect class="cls-1" x="5.13" y="982.63" width="19.74" height="19.74" transform="translate(-697.41 301.3) rotate(-45)"/><rect class="cls-1" x="5.38" y="952.88" width="19.25" height="19.25" transform="translate(-676.2 292.52) rotate(-45)"/><rect class="cls-1" x="5.62" y="923.12" width="18.76" height="18.76" transform="translate(-654.98 283.73) rotate(-45)"/><rect class="cls-1" x="5.87" y="893.37" width="18.27" height="18.27" transform="translate(-633.77 274.94) rotate(-45)"/><rect class="cls-1" x="6.11" y="863.61" width="17.78" height="17.78" transform="translate(-612.56 266.16) rotate(-45)"/><rect class="cls-1" x="6.36" y="833.86" width="17.28" height="17.28" transform="translate(-591.34 257.37) rotate(-45)"/><rect class="cls-1" x="6.6" y="804.1" width="16.79" height="16.79" transform="translate(-570.13 248.58) rotate(-45)"/><rect class="cls-1" x="6.85" y="774.35" width="16.3" height="16.3" transform="translate(-548.92 239.8) rotate(-45)"/><rect class="cls-1" x="7.09" y="744.59" width="15.81" height="15.81" transform="translate(-527.7 231.01) rotate(-45)"/><rect class="cls-1" x="7.34" y="714.84" width="15.32" height="15.32" transform="translate(-506.49 222.22) rotate(-45)"/><rect class="cls-1" x="7.59" y="685.09" width="14.83" height="14.83" transform="translate(-485.28 213.44) rotate(-45)"/><rect class="cls-1" x="7.83" y="655.33" width="14.34" height="14.34" transform="translate(-464.06 204.65) rotate(-45)"/><rect class="cls-1" x="8.08" y="625.58" width="13.85" height="13.85" transform="translate(-442.85 195.86) rotate(-45)"/><rect class="cls-1" x="8.32" y="595.82" width="13.36" height="13.36" transform="translate(-421.64 187.07) rotate(-45)"/><rect class="cls-1" x="8.57" y="566.07" width="12.87" height="12.87" transform="translate(-400.43 178.29) rotate(-45)"/><rect class="cls-1" x="8.81" y="536.31" width="12.37" height="12.37" transform="translate(-379.21 169.5) rotate(-45)"/><rect class="cls-1" x="9.06" y="506.56" width="11.88" height="11.88" transform="translate(-358 160.71) rotate(-45)"/><rect class="cls-1" x="9.3" y="476.8" width="11.39" height="11.39" transform="translate(-336.79 151.93) rotate(-45)"/><rect class="cls-1" x="9.55" y="447.05" width="10.9" height="10.9" transform="translate(-315.57 143.14) rotate(-45)"/><rect class="cls-1" x="9.79" y="417.29" width="10.41" height="10.41" transform="translate(-294.36 134.35) rotate(-45)"/><rect class="cls-1" x="10.04" y="387.54" width="9.92" height="9.92" transform="translate(-273.15 125.57) rotate(-45)"/><rect class="cls-1" x="10.29" y="357.79" width="9.43" height="9.43" transform="translate(-251.93 116.78) rotate(-45)"/><rect class="cls-1" x="10.53" y="328.03" width="8.94" height="8.94" transform="translate(-230.72 107.99) rotate(-45)"/><rect class="cls-1" x="10.78" y="298.28" width="8.45" height="8.45" transform="translate(-209.51 99.21) rotate(-45)"/><rect class="cls-1" x="11.02" y="268.52" width="7.95" height="7.95" transform="translate(-188.29 90.42) rotate(-45)"/><rect class="cls-1" x="11.27" y="238.77" width="7.46" height="7.46" transform="translate(-167.08 81.63) rotate(-45)"/><rect class="cls-1" x="11.51" y="209.01" width="6.97" height="6.97" transform="translate(-145.87 72.85) rotate(-45)"/><rect class="cls-1" x="11.76" y="179.26" width="6.48" height="6.48" transform="translate(-124.65 64.06) rotate(-45)"/><rect class="cls-1" x="12" y="149.5" width="5.99" height="5.99" transform="translate(-103.44 55.27) rotate(-45)"/><rect class="cls-1" x="12.25" y="119.75" width="5.5" height="5.5" transform="translate(-82.23 46.49) rotate(-45)"/><rect class="cls-1" x="12.5" y="90" width="5.01" height="5.01" transform="translate(-61.01 37.7) rotate(-45)"/><rect class="cls-1" x="12.74" y="60.24" width="4.52" height="4.52" transform="translate(-39.8 28.91) rotate(-45)"/><rect class="cls-1" x="12.99" y="30.49" width="4.03" height="4.03" transform="translate(-18.59 20.13) rotate(-45)"/><rect class="cls-1" x="13.23" y="0.73" width="3.54" height="3.54" transform="translate(2.63 11.34) rotate(-45)"/></g></g></svg>