<svg xmlns="http://www.w3.org/2000/svg" viewBox="0 0 1472.05 479.48"><defs><style>.cls-1{opacity:0;}.cls-2{fill:#603990;}.cls-3{opacity:0.09;}.cls-4{fill:#6c398e;}.cls-5{opacity:0.18;}.cls-6{fill:#77398d;}.cls-7{opacity:0.27;}.cls-8{fill:#81398b;}.cls-9{opacity:0.36;}.cls-10{fill:#8c3989;}.cls-11{opacity:0.45;}.cls-12{fill:#963988;}.cls-13{opacity:0.55;}.cls-14{fill:#a03986;}.cls-15{opacity:0.64;}.cls-16{fill:#ab3984;}.cls-17{opacity:0.73;}.cls-18{fill:#b53982;}.cls-19{opacity:0.82;}.cls-20{fill:#c03981;}.cls-21{opacity:0.91;}.cls-22{fill:#ca387f;}.cls-23{fill:#d5397d;}.cls-24{fill:#d7507f;}.cls-25{fill:#d96380;}.cls-26{fill:#db7481;}.cls-27{fill:#de8380;}.cls-28{fill:#e1917f;}.cls-29{fill:#e4a07d;}.cls-30{fill:#e7af7b;}.cls-31{fill:#eabf77;}.cls-32{fill:#eece71;}.cls-33{fill:#f2dc69;}.cls-34{fill:#f6ee5f;}</style></defs><title>Asset 30</title><g id="Layer_2" data-name="Layer 2"><g id="Layer_1-2" data-name="Layer 1"><g class="cls-1"><path class="cls-2" d="M231.72,51.67l-20.06,56.07,39.45,8.38Zm37,124.8-9.36-31.34-56.39-12-9.58,27.31-32.32-6.87L218.8,0l24.29,5.16,58,178.18Z"/><path class="cls-2" d="M386,201.39V128c0-16.54-10-24.26-19.17-26.2s-19.39,1.47-19.39,18V193.2l-29-6.16V65.67l28.31,6V82.87c7.58-6.78,18.27-8.7,29-6.42A46.93,46.93,0,0,1,403.12,93c9.36,11.77,11.81,23.71,11.81,37v77.57Z"/><path class="cls-2" d="M489.82,128c-17.39-3.7-19.61,10.74-19.61,30.54s2.22,35.42,19.61,39.11,19.84-10.92,19.84-30.73S507.2,131.65,489.82,128Zm20.5,99.87V216.41c-8,7.61-16.49,9.31-28.75,6.7-11.36-2.41-22.06-8.88-28.53-17-11.59-14.58-11.81-35.59-11.81-53.76s.22-38.85,11.81-48.5c6.47-5.39,16.94-7.35,28.31-4.94,11.81,2.51,20.73,7.67,28.31,18.13V61.82l29,6.16V233.84Z"/><path class="cls-2" d="M634.25,165.88c-4.46-5.61-8.25-9-15.38-10.49-8.92-1.9-18.73,3-18.73,18.38v73.15l-29-6.16V119.39l28.31,6v11.65c5.57-5.81,16.71-9.49,29.19-6.84,11.37,2.41,19.39,7.15,27.42,17.24Z"/><path class="cls-2" d="M729.86,189.46a26.55,26.55,0,0,0-19.39-16.7c-9.81-2.08-16.27,1.9-19.39,8.46a30.6,30.6,0,0,0-2.67,12.48l44.13,9.38A39.54,39.54,0,0,0,729.86,189.46Zm-41.45,25c0,15.61,9.13,29,25.4,32.42,12.71,2.7,19,.3,26.3-5.82l17.61,21.68c-11.81,9.83-23.18,14.17-44.13,9.72-27.41-5.83-53.71-24.46-53.71-73.61,0-39.61,20.5-57.61,50.59-51.22,32.32,6.87,50.6,35.45,50.6,68.76v13.51Z"/><path class="cls-2" d="M902.59,311.21l-23.84-5.07-24.3-81.34-24.29,71-23.85-5.07-35.66-129,30.76,6.54,18.72,79,23.62-70,21.18,4.5,23.85,80.08,18.72-71L938,197.37Z"/><path class="cls-2" d="M999.55,331.81V305.72l67.75-96.48-64.86-13.78V166.57l101.42,21.56v25.62l-68,96.9,68,14.45V354Z"/><path class="cls-2" d="M1195.68,373.5V299.43c0-16.08-9.8-23.52-18.94-25.46S1158,275.58,1158,291.42V365.5l-29-6.16V193.48l29,6.16v55.67c7.8-6.73,17.6-8.83,27.86-6.65,25.4,5.4,38.78,26.87,38.78,52.5v78.5Z"/><path class="cls-2" d="M1313.58,308.41a22.8,22.8,0,0,0-13.59-8.24c-5.8-1.24-10-.27-13.37,2.51-6,5-6.69,15.35-6.69,27.93s.67,23.44,6.69,31a22.18,22.18,0,0,0,13.37,8.2c5.79,1.23,10.25.31,13.59-2.47,6-5,6.69-15.58,6.69-28.16S1319.6,316,1313.58,308.41Zm22.51,81.43c-7.13,6.4-18.94,10.88-36.1,7.23a59.92,59.92,0,0,1-35.89-22.53c-10.47-13.64-13.15-28-13.15-50.09,0-21.89,2.68-35.07,13.15-44.26,7.14-6.4,18.73-10.93,35.89-7.28a60.55,60.55,0,0,1,36.1,22.58c10.48,13.65,13.15,28,13.15,49.85C1349.24,367.48,1346.57,380.65,1336.09,389.84Z"/><path class="cls-2" d="M1443.75,426.23V415.05c-7.58,6.78-18.28,8.7-29,6.42a46.88,46.88,0,0,1-27.41-16.54c-9.36-11.77-11.81-23.71-11.81-37V290.37l29,6.16v73.38c0,16.54,10,24.26,19.17,26.2s19.39-1.47,19.39-18V304.72l29,6.16V432.25Z"/><path class="cls-2" d="M242.22,6"/></g><g class="cls-3"><path class="cls-4" d="M215.14,57.62,195.08,113.7l39.45,8.38Zm37,124.81-9.36-31.34-56.39-12-9.59,27.32-32.31-6.87L202.21,6l24.3,5.16L284.45,189.3Z"/><path class="cls-4" d="M369.37,207.35V134c0-16.54-10-24.26-19.17-26.21s-19.39,1.47-19.39,18v73.38l-29-6.16V71.63l28.3,6V88.83c7.58-6.78,18.28-8.7,29-6.42A46.88,46.88,0,0,1,386.53,99c9.36,11.77,11.82,23.71,11.82,37v77.57Z"/><path class="cls-4" d="M473.24,133.92c-17.39-3.7-19.62,10.74-19.62,30.54s2.23,35.41,19.62,39.11,19.83-10.93,19.83-30.73S490.62,137.61,473.24,133.92Zm20.5,99.86V222.37c-8,7.61-16.49,9.31-28.75,6.7-11.37-2.42-22.07-8.88-28.53-17-11.59-14.58-11.81-35.59-11.81-53.76s.22-38.86,11.81-48.51c6.46-5.38,16.94-7.35,28.31-4.93,11.81,2.51,20.72,7.67,28.3,18.13V67.78l29,6.16V239.8Z"/><path class="cls-4" d="M617.66,171.84c-4.46-5.61-8.24-9-15.38-10.49-8.91-1.9-18.72,3-18.72,18.38v73.15l-29-6.16V125.35l28.3,6V143c5.57-5.8,16.72-9.49,29.2-6.83,11.37,2.41,19.39,7.15,27.41,17.24Z"/><path class="cls-4" d="M713.28,195.42a26.57,26.57,0,0,0-19.39-16.7c-9.81-2.08-16.27,1.9-19.39,8.46a30.56,30.56,0,0,0-2.68,12.48L716,209A39.3,39.3,0,0,0,713.28,195.42Zm-41.46,25c0,15.61,9.14,29,25.41,32.42,12.71,2.7,18.95.3,26.3-5.82l17.61,21.68C729.33,278.5,718,282.84,697,278.39c-27.42-5.83-53.72-24.46-53.72-73.62,0-39.6,20.51-57.6,50.6-51.21,32.32,6.87,50.59,35.45,50.59,68.76v13.51Z"/><polygon class="cls-4" points="886.01 317.16 862.16 312.1 837.87 230.76 813.58 301.77 789.73 296.7 754.07 167.75 784.82 174.29 803.54 253.28 827.17 183.29 848.34 187.79 872.19 267.87 890.91 196.84 921.45 203.33 886.01 317.16"/><polygon class="cls-4" points="982.96 337.77 982.96 311.68 1050.72 215.2 985.86 201.41 985.86 172.53 1087.27 194.08 1087.27 219.71 1019.29 316.61 1087.27 331.06 1087.27 359.94 982.96 337.77"/><path class="cls-4" d="M1179.1,379.46V305.38c0-16.07-9.81-23.51-18.95-25.46s-18.72,1.62-18.72,17.46v74.08l-29-6.16V199.44l29,6.15v55.68c7.8-6.73,17.61-8.84,27.86-6.66,25.41,5.4,38.78,26.88,38.78,52.51v78.5Z"/><path class="cls-4" d="M1297,314.37a22.81,22.81,0,0,0-13.6-8.25c-5.79-1.23-10-.27-13.37,2.52-6,5-6.68,15.35-6.68,27.93s.66,23.44,6.68,31a22.25,22.25,0,0,0,13.37,8.21c5.8,1.23,10.26.31,13.6-2.47,6-5,6.69-15.59,6.69-28.17S1303,321.94,1297,314.37Zm22.51,81.43c-7.13,6.4-18.94,10.88-36.11,7.23a59.87,59.87,0,0,1-35.88-22.54c-10.47-13.64-13.15-27.95-13.15-50.08,0-21.9,2.68-35.07,13.15-44.26,7.13-6.4,18.72-10.93,35.88-7.28a60.54,60.54,0,0,1,36.11,22.58c10.48,13.64,13.15,28,13.15,49.85C1332.66,373.43,1330,386.61,1319.51,395.8Z"/><path class="cls-4" d="M1427.16,432.19V421c-7.57,6.77-18.27,8.69-29,6.42a46.88,46.88,0,0,1-27.41-16.54c-9.36-11.78-11.82-23.71-11.82-37V296.33l29,6.16v73.37c0,16.54,10,24.27,19.17,26.21s19.39-1.47,19.39-18V310.68l29,6.16V438.21Z"/><path class="cls-4" d="M225.63,12"/></g><g class="cls-5"><path class="cls-6" d="M201.25,61.54l-20.06,56.07L220.64,126Zm37,124.81L228.89,155,172.5,143l-9.59,27.31-32.31-6.87L188.32,9.87,212.62,15l57.94,178.18Z"/><path class="cls-6" d="M355.48,211.27V137.89c0-16.54-10-24.27-19.17-26.21s-19.39,1.47-19.39,18v73.38l-29-6.16V75.54l28.3,6V92.74c7.58-6.77,18.28-8.69,29-6.42a47,47,0,0,1,27.41,16.54c9.36,11.78,11.82,23.71,11.82,37v77.57Z"/><path class="cls-6" d="M459.35,137.83c-17.39-3.69-19.62,10.74-19.62,30.54s2.23,35.42,19.62,39.12,19.83-10.93,19.83-30.73S476.73,141.53,459.35,137.83Zm20.5,99.87V226.29c-8,7.61-16.49,9.3-28.75,6.7-11.37-2.42-22.07-8.89-28.53-17-11.59-14.58-11.81-35.59-11.81-53.77s.22-38.85,11.81-48.5c6.46-5.38,16.94-7.35,28.31-4.93,11.81,2.51,20.72,7.67,28.3,18.13V71.7l29,6.16V243.72Z"/><path class="cls-6" d="M603.77,175.75c-4.46-5.6-8.24-9-15.38-10.49-8.91-1.89-18.72,3-18.72,18.39v73.14l-29-6.16V129.27l28.3,6v11.65c5.57-5.8,16.72-9.49,29.2-6.84,11.37,2.42,19.39,7.15,27.41,17.24Z"/><path class="cls-6" d="M699.39,199.34A26.53,26.53,0,0,0,680,182.64c-9.81-2.09-16.27,1.9-19.39,8.46a30.51,30.51,0,0,0-2.68,12.47L702.06,213A39.25,39.25,0,0,0,699.39,199.34Zm-41.46,25c0,15.61,9.14,29,25.41,32.43,12.71,2.7,18.95.3,26.3-5.83l17.61,21.68c-11.81,9.84-23.18,14.18-44.13,9.72-27.42-5.82-53.72-24.46-53.72-73.61,0-39.6,20.51-57.61,50.6-51.21,32.32,6.87,50.59,35.45,50.59,68.76v13.51Z"/><polygon class="cls-6" points="872.12 321.08 848.27 316.01 823.98 234.67 799.68 305.68 775.84 300.62 740.18 171.67 770.93 178.21 789.65 257.19 813.28 187.21 834.45 191.71 858.3 271.79 877.02 200.76 907.56 207.25 872.12 321.08"/><polygon class="cls-6" points="969.07 341.69 969.07 315.6 1036.83 219.12 971.97 205.33 971.97 176.44 1073.38 198 1073.38 223.62 1005.4 320.52 1073.38 334.97 1073.38 363.86 969.07 341.69"/><path class="cls-6" d="M1165.21,383.38V309.3c0-16.07-9.81-23.52-19-25.46s-18.72,1.61-18.72,17.45v74.08l-29-6.16V203.35l29,6.16v55.68c7.8-6.73,17.61-8.84,27.86-6.66,25.41,5.4,38.78,26.88,38.78,52.5v78.51Z"/><path class="cls-6" d="M1283.11,318.29a22.76,22.76,0,0,0-13.6-8.25c-5.79-1.23-10-.27-13.37,2.52-6,5-6.69,15.35-6.69,27.93s.67,23.43,6.69,31a22.16,22.16,0,0,0,13.37,8.2c5.8,1.23,10.26.32,13.6-2.47,6-5,6.69-15.58,6.69-28.16S1289.13,325.86,1283.11,318.29Zm22.51,81.42c-7.13,6.41-18.94,10.88-36.11,7.24a59.87,59.87,0,0,1-35.88-22.54c-10.47-13.64-13.15-28-13.15-50.08,0-21.9,2.68-35.08,13.15-44.26,7.13-6.41,18.72-10.93,35.88-7.29a60.51,60.51,0,0,1,36.11,22.59c10.48,13.64,13.15,27.95,13.15,49.85C1318.77,377.35,1316.1,390.53,1305.62,399.71Z"/><path class="cls-6" d="M1413.27,436.11V424.92c-7.57,6.78-18.27,8.7-29,6.43a46.94,46.94,0,0,1-27.41-16.55c-9.36-11.77-11.82-23.71-11.82-37V300.24l29,6.16v73.38c0,16.54,10,24.26,19.17,26.21s19.39-1.47,19.39-18V314.6l29,6.16V442.12Z"/><path class="cls-6" d="M211.74,15.86"/></g><g class="cls-7"><path class="cls-8" d="M189.72,63.9,169.66,120l39.45,8.38Zm37,124.8-9.36-31.34-56.39-12-9.59,27.32-32.31-6.87L176.79,12.23l24.3,5.16L259,195.57Z"/><path class="cls-8" d="M344,213.62V140.24c0-16.54-10-24.26-19.17-26.2s-19.39,1.46-19.39,18v73.38l-29-6.15V77.9l28.3,6V95.1c7.58-6.78,18.28-8.7,29-6.42a46.88,46.88,0,0,1,27.41,16.54c9.36,11.77,11.82,23.71,11.82,37v77.57Z"/><path class="cls-8" d="M447.82,140.19c-17.39-3.7-19.62,10.74-19.62,30.54s2.23,35.41,19.62,39.11,19.83-10.93,19.83-30.73S465.2,143.88,447.82,140.19Zm20.5,99.87V228.64c-8,7.61-16.49,9.31-28.75,6.7-11.37-2.41-22.07-8.88-28.53-17-11.59-14.58-11.81-35.59-11.81-53.76s.22-38.86,11.81-48.51c6.46-5.38,16.94-7.34,28.31-4.93,11.81,2.51,20.72,7.67,28.3,18.13V74.05l29,6.16V246.07Z"/><path class="cls-8" d="M592.24,178.11c-4.46-5.61-8.25-9-15.38-10.49-8.91-1.9-18.72,3-18.72,18.38v73.15l-29-6.16V131.62l28.3,6v11.65c5.57-5.81,16.72-9.5,29.2-6.84,11.37,2.41,19.39,7.15,27.41,17.24Z"/><path class="cls-8" d="M687.86,201.69A26.57,26.57,0,0,0,668.47,185c-9.81-2.08-16.27,1.9-19.39,8.46a30.43,30.43,0,0,0-2.68,12.48l44.13,9.38A39.3,39.3,0,0,0,687.86,201.69Zm-41.46,25c0,15.61,9.14,29,25.41,32.42,12.7,2.7,18.94.3,26.3-5.82l17.61,21.68c-11.82,9.83-23.18,14.17-44.13,9.72-27.42-5.83-53.72-24.46-53.72-73.62,0-39.6,20.51-57.6,50.6-51.21,32.31,6.87,50.59,35.45,50.59,68.76V242.1Z"/><polygon class="cls-8" points="860.59 323.44 836.74 318.37 812.45 237.03 788.15 308.04 764.31 302.97 728.64 174.02 759.4 180.56 778.12 259.55 801.75 189.56 822.92 194.06 846.77 274.14 865.49 203.11 896.03 209.6 860.59 323.44"/><polygon class="cls-8" points="957.54 344.04 957.54 317.95 1025.3 221.47 960.44 207.68 960.44 178.8 1061.85 200.35 1061.85 225.98 993.87 322.88 1061.85 337.33 1061.85 366.21 957.54 344.04"/><path class="cls-8" d="M1153.68,385.73V311.65c0-16.07-9.81-23.51-19-25.45S1116,287.81,1116,303.65v74.08l-29-6.16V205.71l29,6.16v55.67c7.8-6.73,17.61-8.84,27.86-6.66,25.41,5.4,38.78,26.88,38.78,52.51v78.5Z"/><path class="cls-8" d="M1271.58,320.64a22.86,22.86,0,0,0-13.6-8.25c-5.79-1.23-10-.26-13.37,2.52-6,5-6.69,15.35-6.69,27.93s.67,23.44,6.69,31a22.25,22.25,0,0,0,13.37,8.2c5.8,1.23,10.26.31,13.6-2.47,6-5,6.69-15.59,6.69-28.17S1277.6,328.21,1271.58,320.64Zm22.51,81.43c-7.13,6.4-18.94,10.88-36.11,7.23a59.87,59.87,0,0,1-35.88-22.54c-10.47-13.64-13.15-27.95-13.15-50.08,0-21.9,2.68-35.07,13.15-44.26,7.13-6.4,18.72-10.93,35.88-7.28a60.54,60.54,0,0,1,36.11,22.58c10.48,13.64,13.15,28,13.15,49.85C1307.24,379.7,1304.57,392.88,1294.09,402.07Z"/><path class="cls-8" d="M1401.74,438.46V427.28c-7.57,6.77-18.27,8.69-29,6.42a46.88,46.88,0,0,1-27.41-16.54c-9.36-11.78-11.82-23.71-11.82-37V302.6l29,6.16v73.37c0,16.54,10,24.27,19.17,26.21s19.39-1.47,19.39-18V317l29,6.16V444.48Z"/><path class="cls-8" d="M200.21,18.22"/></g><g class="cls-9"><path class="cls-10" d="M180.21,65.16l-20.06,56.08,39.45,8.38Zm37,124.81-9.36-31.34-56.39-12L141.88,174l-32.32-6.87L167.29,13.5l24.29,5.16,57.95,178.18Z"/><path class="cls-10" d="M334.45,214.89V141.51c0-16.54-10-24.26-19.17-26.21s-19.39,1.47-19.39,18v73.38l-29-6.16V79.17l28.31,6V96.37c7.58-6.78,18.28-8.7,29-6.42a46.93,46.93,0,0,1,27.42,16.54c9.36,11.77,11.81,23.71,11.81,37v77.57Z"/><path class="cls-10" d="M438.31,141.46c-17.38-3.7-19.61,10.74-19.61,30.54s2.23,35.41,19.61,39.11,19.84-10.93,19.84-30.73S455.7,145.15,438.31,141.46Zm20.51,99.86V229.91c-8,7.61-16.5,9.31-28.76,6.7-11.36-2.42-22.06-8.88-28.52-17C390,205,389.72,184,389.72,165.84S390,127,401.54,117.33c6.46-5.38,16.93-7.34,28.3-4.93,11.81,2.51,20.73,7.67,28.31,18.13V75.32l29,6.16V247.34Z"/><path class="cls-10" d="M582.74,179.38c-4.46-5.61-8.25-9-15.38-10.49-8.92-1.9-18.72,3-18.72,18.38v73.15l-29-6.16V132.89l28.31,6v11.64c5.57-5.8,16.71-9.49,29.19-6.83,11.37,2.41,19.4,7.15,27.42,17.24Z"/><path class="cls-10" d="M678.35,203A26.55,26.55,0,0,0,659,186.26c-9.8-2.08-16.27,1.9-19.39,8.46a30.56,30.56,0,0,0-2.67,12.48L681,216.58A39.31,39.31,0,0,0,678.35,203Zm-41.45,25c0,15.61,9.14,29,25.41,32.42,12.7,2.7,18.94.3,26.3-5.82l17.6,21.68C694.4,286,683,290.38,662.08,285.93c-27.41-5.83-53.71-24.46-53.71-73.62,0-39.6,20.5-57.6,50.59-51.21,32.32,6.87,50.6,35.45,50.6,68.76v13.51Z"/><polygon class="cls-10" points="851.09 324.7 827.24 319.63 802.94 238.3 778.65 309.31 754.8 304.24 719.14 175.29 749.9 181.83 768.62 260.82 792.25 190.83 813.42 195.33 837.27 275.41 855.99 204.38 886.52 210.87 851.09 324.7"/><polygon class="cls-10" points="948.04 345.31 948.04 319.22 1015.79 222.74 950.93 208.95 950.93 180.07 1052.35 201.62 1052.35 227.25 984.37 324.15 1052.35 338.6 1052.35 367.48 948.04 345.31"/><path class="cls-10" d="M1144.17,387V312.92c0-16.07-9.8-23.51-18.94-25.45s-18.72,1.61-18.72,17.45V379l-29-6.16V207l29,6.15v55.68c7.8-6.73,17.6-8.84,27.86-6.66,25.4,5.4,38.78,26.88,38.78,52.51v78.5Z"/><path class="cls-10" d="M1262.08,321.91a22.87,22.87,0,0,0-13.6-8.25c-5.8-1.23-10-.27-13.37,2.52-6,5-6.69,15.35-6.69,27.93s.67,23.44,6.69,31a22.23,22.23,0,0,0,13.37,8.2c5.79,1.23,10.25.31,13.6-2.47,6-5,6.68-15.59,6.68-28.17S1268.09,329.48,1262.08,321.91Zm22.51,81.43c-7.14,6.4-18.95,10.88-36.11,7.23A59.87,59.87,0,0,1,1212.6,388c-10.48-13.64-13.15-27.95-13.15-50.08,0-21.9,2.67-35.07,13.15-44.26,7.13-6.4,18.72-10.93,35.88-7.28A60.6,60.6,0,0,1,1284.59,309c10.47,13.64,13.15,28,13.15,49.85C1297.74,381,1295.06,394.15,1284.59,403.34Z"/><path class="cls-10" d="M1392.24,439.73V428.55c-7.58,6.77-18.28,8.69-29,6.42a46.9,46.9,0,0,1-27.42-16.54c-9.36-11.78-11.81-23.71-11.81-37V303.87l29,6.16V383.4c0,16.54,10,24.27,19.17,26.21s19.39-1.47,19.39-18V318.22l29,6.16V445.75Z"/><path class="cls-10" d="M190.71,19.49"/></g><g class="cls-11"><path class="cls-12" d="M172.4,65.83,152.34,121.9l39.45,8.38Zm37,124.8L200,159.29l-56.39-12-9.58,27.31-32.32-6.87L159.47,14.16l24.3,5.16L241.72,197.5Z"/><path class="cls-12" d="M326.63,215.55V142.17c0-16.54-10-24.26-19.16-26.2s-19.39,1.47-19.39,18v73.38l-29-6.16V79.83l28.31,6V97c7.58-6.78,18.27-8.7,29-6.42a46.93,46.93,0,0,1,27.42,16.54c9.36,11.78,11.81,23.71,11.81,37v77.57Z"/><path class="cls-12" d="M430.5,142.12c-17.39-3.7-19.61,10.74-19.61,30.54s2.22,35.42,19.61,39.11,19.83-10.92,19.83-30.72S447.88,145.81,430.5,142.12ZM451,242V230.57c-8,7.62-16.49,9.31-28.75,6.7-11.36-2.41-22.06-8.88-28.53-17-11.59-14.58-11.81-35.59-11.81-53.76s.22-38.85,11.81-48.5c6.47-5.39,16.94-7.35,28.31-4.94,11.81,2.52,20.73,7.67,28.3,18.13V76l29,6.16V248Z"/><path class="cls-12" d="M574.92,180c-4.45-5.61-8.24-9-15.37-10.49-8.92-1.9-18.73,3-18.73,18.38v73.15l-29-6.16V133.55l28.31,6v11.65c5.57-5.81,16.71-9.49,29.19-6.84,11.37,2.42,19.39,7.15,27.42,17.24Z"/><path class="cls-12" d="M670.54,203.63a26.54,26.54,0,0,0-19.39-16.71c-9.81-2.08-16.27,1.9-19.39,8.46a30.6,30.6,0,0,0-2.67,12.48l44.13,9.38A39.44,39.44,0,0,0,670.54,203.63Zm-41.45,25c0,15.61,9.13,29,25.4,32.42,12.71,2.7,19,.3,26.3-5.82l17.61,21.68c-11.81,9.83-23.18,14.17-44.13,9.72-27.41-5.83-53.71-24.46-53.71-73.61,0-39.6,20.5-57.61,50.59-51.21,32.32,6.87,50.59,35.44,50.59,68.75V244Z"/><polygon class="cls-12" points="843.27 325.37 819.42 320.3 795.13 238.96 770.84 309.97 746.99 304.9 711.33 175.96 742.09 182.49 760.81 261.48 784.43 191.49 805.61 195.99 829.46 276.07 848.18 205.04 878.71 211.53 843.27 325.37"/><polygon class="cls-12" points="940.23 345.98 940.23 319.88 1007.98 223.4 943.12 209.62 943.12 180.73 1044.54 202.29 1044.54 227.91 976.56 324.81 1044.54 339.26 1044.54 368.15 940.23 345.98"/><path class="cls-12" d="M1136.36,387.67V313.59c0-16.08-9.81-23.52-18.94-25.46s-18.73,1.61-18.73,17.45v74.08l-29-6.16V207.64l29,6.16v55.67c7.81-6.72,17.61-8.83,27.86-6.65,25.41,5.4,38.79,26.87,38.79,52.5v78.5Z"/><path class="cls-12" d="M1254.26,322.57a22.8,22.8,0,0,0-13.59-8.24c-5.8-1.24-10-.27-13.38,2.51-6,5-6.68,15.35-6.68,27.93s.67,23.44,6.68,31a22.23,22.23,0,0,0,13.38,8.2c5.79,1.23,10.25.31,13.59-2.47,6-5,6.69-15.58,6.69-28.16S1260.28,330.14,1254.26,322.57ZM1276.77,404c-7.13,6.4-18.94,10.88-36.1,7.23a59.92,59.92,0,0,1-35.89-22.53c-10.47-13.64-13.15-28-13.15-50.09,0-21.89,2.68-35.07,13.15-44.26,7.14-6.4,18.73-10.93,35.89-7.28a60.55,60.55,0,0,1,36.1,22.58c10.48,13.65,13.15,28,13.15,49.86C1289.92,381.64,1287.25,394.81,1276.77,404Z"/><path class="cls-12" d="M1384.43,440.39V429.21c-7.58,6.78-18.28,8.7-29,6.42A46.88,46.88,0,0,1,1328,419.09c-9.36-11.77-11.81-23.71-11.81-37V304.53l29,6.16v73.38c0,16.54,10,24.26,19.17,26.2s19.39-1.47,19.39-18V318.88l29,6.16V446.41Z"/><path class="cls-12" d="M182.89,20.15"/></g><g class="cls-13"><path class="cls-14" d="M166,66.36l-20.06,56.07,39.45,8.39Zm37,124.81-9.36-31.34-56.39-12-9.59,27.32L95.3,168.29,153,14.7l24.3,5.16L235.26,198Z"/><path class="cls-14" d="M320.18,216.09V142.71c0-16.54-10-24.26-19.17-26.21s-19.39,1.47-19.39,18v73.38l-29-6.16V80.37l28.3,6V97.56c7.58-6.77,18.28-8.69,29-6.42a46.94,46.94,0,0,1,27.41,16.55c9.36,11.77,11.82,23.71,11.82,37v77.58Z"/><path class="cls-14" d="M424.05,142.65c-17.39-3.69-19.62,10.74-19.62,30.55s2.23,35.41,19.62,39.11,19.83-10.93,19.83-30.73S441.43,146.35,424.05,142.65Zm20.5,99.87V231.11c-8,7.61-16.49,9.31-28.75,6.7-11.37-2.42-22.07-8.88-28.53-17-11.59-14.58-11.81-35.59-11.81-53.76s.22-38.86,11.81-48.51c6.46-5.38,16.94-7.35,28.31-4.93,11.81,2.51,20.72,7.67,28.3,18.13V76.52l29,6.16V248.54Z"/><path class="cls-14" d="M568.47,180.58c-4.46-5.61-8.24-9-15.38-10.5-8.91-1.89-18.72,3-18.72,18.39v73.15l-29-6.16V134.09l28.3,6v11.64c5.57-5.8,16.72-9.49,29.2-6.84,11.37,2.42,19.39,7.15,27.41,17.25Z"/><path class="cls-14" d="M664.09,204.16a26.55,26.55,0,0,0-19.39-16.7c-9.81-2.08-16.27,1.9-19.39,8.46a30.51,30.51,0,0,0-2.68,12.47l44.13,9.38A39.29,39.29,0,0,0,664.09,204.16Zm-41.46,25c0,15.6,9.14,29,25.41,32.42,12.71,2.7,19,.3,26.3-5.82L692,277.4c-11.81,9.84-23.18,14.18-44.13,9.73-27.42-5.83-53.72-24.47-53.72-73.62,0-39.6,20.51-57.6,50.6-51.21,32.32,6.87,50.59,35.45,50.59,68.76v13.51Z"/><polygon class="cls-14" points="836.82 325.9 812.97 320.83 788.68 239.5 764.38 310.51 740.54 305.44 704.88 176.49 735.63 183.03 754.36 262.02 777.98 192.03 799.15 196.53 823 276.61 841.72 205.58 872.26 212.07 836.82 325.9"/><polygon class="cls-14" points="933.77 346.51 933.77 320.42 1001.53 223.94 936.67 210.15 936.67 181.27 1038.08 202.82 1038.08 228.45 970.1 325.35 1038.08 339.8 1038.08 368.68 933.77 346.51"/><path class="cls-14" d="M1129.91,388.2V314.12c0-16.07-9.81-23.51-19-25.46s-18.72,1.62-18.72,17.46v74.07l-29-6.15V208.17l29,6.16V270c7.8-6.73,17.61-8.84,27.86-6.66,25.41,5.4,38.78,26.88,38.78,52.5v78.51Z"/><path class="cls-14" d="M1247.81,323.11a22.76,22.76,0,0,0-13.6-8.25c-5.79-1.23-10-.27-13.37,2.52-6,5-6.69,15.35-6.69,27.93s.67,23.43,6.69,31a22.16,22.16,0,0,0,13.37,8.2c5.8,1.24,10.26.32,13.6-2.46,6-5,6.69-15.59,6.69-28.17S1253.83,330.68,1247.81,323.11Zm22.51,81.42c-7.13,6.41-18.94,10.89-36.11,7.24a59.87,59.87,0,0,1-35.88-22.54c-10.47-13.64-13.15-28-13.15-50.08,0-21.9,2.68-35.07,13.15-44.26,7.13-6.41,18.72-10.93,35.88-7.28a60.45,60.45,0,0,1,36.11,22.58c10.48,13.64,13.15,27.95,13.15,49.85C1283.47,382.17,1280.8,395.35,1270.32,404.53Z"/><path class="cls-14" d="M1378,440.93V429.75c-7.57,6.77-18.27,8.69-29,6.42a46.94,46.94,0,0,1-27.41-16.55c-9.36-11.77-11.82-23.7-11.82-37V305.06l29,6.16V384.6c0,16.54,10,24.27,19.17,26.21s19.39-1.47,19.39-18V319.42l29,6.16V447Z"/><path class="cls-14" d="M176.44,20.69"/></g><g class="cls-15"><path class="cls-16" d="M160.52,67.25l-20.06,56.07,39.45,8.38Zm37,124.8-9.36-31.34-56.39-12L122.19,176l-32.32-6.87L147.59,15.58l24.3,5.17,58,178.17Z"/><path class="cls-16" d="M314.75,217V143.59c0-16.54-10-24.26-19.16-26.2s-19.39,1.47-19.39,18v73.38l-29-6.16V81.25l28.31,6V98.45c7.58-6.78,18.27-8.69,29-6.42a46.93,46.93,0,0,1,27.42,16.54c9.36,11.78,11.81,23.71,11.81,37v77.57Z"/><path class="cls-16" d="M418.62,143.54c-17.39-3.7-19.62,10.74-19.62,30.54s2.23,35.42,19.62,39.11,19.83-10.92,19.83-30.72S436,147.24,418.62,143.54Zm20.5,99.87V232c-8,7.62-16.49,9.31-28.75,6.7-11.37-2.41-22.06-8.88-28.53-17C370.25,207.1,370,186.09,370,167.92s.22-38.85,11.81-48.5c6.47-5.38,16.94-7.35,28.31-4.93,11.81,2.51,20.73,7.66,28.3,18.12V77.41l29,6.15V249.43Z"/><path class="cls-16" d="M563,181.46c-4.45-5.61-8.24-9-15.37-10.49-8.92-1.9-18.73,3-18.73,18.38V262.5l-29-6.16V135l28.3,6v11.65c5.58-5.8,16.72-9.49,29.2-6.84,11.37,2.42,19.39,7.15,27.42,17.24Z"/><path class="cls-16" d="M658.66,205.05a26.51,26.51,0,0,0-19.39-16.7c-9.81-2.09-16.27,1.89-19.39,8.45a30.6,30.6,0,0,0-2.67,12.48l44.13,9.38A39.44,39.44,0,0,0,658.66,205.05Zm-41.45,25c0,15.61,9.13,29,25.4,32.43,12.71,2.7,18.95.29,26.3-5.83l17.61,21.68c-11.81,9.84-23.18,14.18-44.13,9.72-27.41-5.83-53.71-24.46-53.71-73.61,0-39.6,20.5-57.61,50.59-51.21,32.32,6.87,50.59,35.44,50.59,68.76v13.51Z"/><polygon class="cls-16" points="831.39 326.79 807.54 321.72 783.25 240.38 758.96 311.39 735.11 306.32 699.45 177.38 730.21 183.91 748.93 262.9 772.55 192.91 793.73 197.41 817.58 277.49 836.3 206.46 866.83 212.95 831.39 326.79"/><polygon class="cls-16" points="928.35 347.4 928.35 321.31 996.1 224.82 931.24 211.04 931.24 182.15 1032.65 203.71 1032.65 229.33 964.68 326.23 1032.65 340.68 1032.65 369.57 928.35 347.4"/><path class="cls-16" d="M1124.48,389.09V315c0-16.08-9.81-23.52-18.94-25.46s-18.73,1.61-18.73,17.45v74.08l-29-6.16V209.06l29,6.16v55.67c7.8-6.72,17.61-8.83,27.86-6.65,25.41,5.4,38.79,26.88,38.79,52.5v78.5Z"/><path class="cls-16" d="M1242.38,324a22.8,22.8,0,0,0-13.59-8.24c-5.8-1.24-10-.27-13.38,2.51-6,5-6.68,15.35-6.68,27.93s.67,23.44,6.68,31a22.23,22.23,0,0,0,13.38,8.2c5.79,1.23,10.25.32,13.59-2.47,6-5,6.69-15.58,6.69-28.16S1248.4,331.56,1242.38,324Zm22.51,81.43c-7.13,6.4-18.94,10.88-36.1,7.23a59.92,59.92,0,0,1-35.89-22.53c-10.47-13.64-13.15-27.95-13.15-50.09,0-21.89,2.68-35.07,13.15-44.26,7.14-6.4,18.73-10.93,35.89-7.28a60.51,60.51,0,0,1,36.1,22.59C1275.37,324.72,1278,339,1278,360.93,1278,383.06,1275.37,396.23,1264.89,405.42Z"/><path class="cls-16" d="M1372.55,441.81V430.63c-7.58,6.78-18.28,8.7-29,6.42a46.88,46.88,0,0,1-27.41-16.54c-9.36-11.77-11.81-23.71-11.81-37V306l29,6.16v73.38c0,16.54,10,24.26,19.17,26.2s19.39-1.47,19.39-18V320.3l29,6.16V447.83Z"/><path class="cls-16" d="M171,21.57"/></g><g class="cls-17"><path class="cls-18" d="M155.79,69,135.73,125l39.45,8.39Zm37,124.81-9.36-31.34-56.39-12-9.58,27.32-32.32-6.87L142.86,17.3l24.29,5.16L225.1,200.64Z"/><path class="cls-18" d="M310,218.69V145.31c0-16.54-10-24.27-19.17-26.21s-19.39,1.47-19.39,18v73.38l-29-6.16V83l28.3,6v11.18c7.58-6.77,18.28-8.69,29-6.42a46.94,46.94,0,0,1,27.41,16.55c9.36,11.77,11.81,23.7,11.81,37v77.58Z"/><path class="cls-18" d="M413.88,145.25c-17.38-3.69-19.61,10.74-19.61,30.54s2.23,35.42,19.61,39.12,19.84-10.93,19.84-30.73S431.27,149,413.88,145.25Zm20.51,99.87V233.71c-8,7.61-16.5,9.3-28.75,6.7-11.37-2.42-22.07-8.88-28.53-17-11.59-14.58-11.82-35.59-11.82-53.76s.23-38.86,11.82-48.51c6.46-5.38,16.94-7.35,28.3-4.93,11.82,2.51,20.73,7.67,28.31,18.13V79.12l29,6.16V251.14Z"/><path class="cls-18" d="M558.31,183.17c-4.46-5.6-8.25-9-15.38-10.49-8.92-1.89-18.72,3-18.72,18.39v73.14l-29-6.15V136.69l28.31,6v11.64c5.57-5.8,16.72-9.49,29.2-6.84,11.36,2.42,19.39,7.15,27.41,17.25Z"/><path class="cls-18" d="M653.93,206.76a26.52,26.52,0,0,0-19.4-16.7c-9.8-2.09-16.27,1.9-19.39,8.46A30.51,30.51,0,0,0,612.47,211l44.13,9.38A39.25,39.25,0,0,0,653.93,206.76Zm-41.46,25c0,15.6,9.14,29,25.41,32.42,12.7,2.7,18.94.3,26.3-5.83L681.79,280c-11.82,9.84-23.18,14.18-44.13,9.73-27.42-5.83-53.72-24.47-53.72-73.62,0-39.6,20.51-57.61,50.59-51.21,32.32,6.87,50.6,35.45,50.6,68.76v13.51Z"/><polygon class="cls-18" points="826.66 328.5 802.81 323.43 778.52 242.09 754.22 313.11 730.37 308.04 694.71 179.09 725.47 185.63 744.19 264.62 767.82 194.63 788.99 199.13 812.84 279.21 831.56 208.18 862.1 214.67 826.66 328.5"/><polygon class="cls-18" points="923.61 349.11 923.61 323.02 991.37 226.54 926.51 212.75 926.51 183.87 1027.92 205.42 1027.92 231.04 959.94 327.95 1027.92 342.39 1027.92 371.28 923.61 349.11"/><path class="cls-18" d="M1119.75,390.8V316.72c0-16.07-9.81-23.51-19-25.46s-18.72,1.61-18.72,17.46v74.07l-29-6.16V210.77l29,6.16v55.68c7.8-6.73,17.61-8.84,27.86-6.66,25.41,5.4,38.78,26.88,38.78,52.5V397Z"/><path class="cls-18" d="M1237.65,325.71a22.79,22.79,0,0,0-13.6-8.25c-5.79-1.23-10-.27-13.37,2.52-6,5-6.69,15.35-6.69,27.93s.67,23.43,6.69,31a22.16,22.16,0,0,0,13.37,8.2c5.8,1.24,10.25.32,13.6-2.46,6-5,6.68-15.59,6.68-28.17S1243.67,333.28,1237.65,325.71Zm22.51,81.42c-7.13,6.41-19,10.89-36.11,7.24a59.87,59.87,0,0,1-35.88-22.54c-10.48-13.64-13.15-27.95-13.15-50.08,0-21.9,2.67-35.07,13.15-44.26,7.13-6.41,18.72-10.93,35.88-7.28a60.48,60.48,0,0,1,36.11,22.58c10.47,13.64,13.15,27.95,13.15,49.85C1273.31,384.77,1270.63,398,1260.16,407.13Z"/><path class="cls-18" d="M1367.81,443.53V432.35c-7.58,6.77-18.27,8.69-29,6.42a47,47,0,0,1-27.42-16.55c-9.36-11.77-11.81-23.71-11.81-37V307.66l29,6.16V387.2c0,16.54,10,24.26,19.16,26.21s19.39-1.47,19.39-18V322l29,6.16V449.54Z"/><path class="cls-18" d="M166.28,23.29"/></g><g class="cls-19"><path class="cls-20" d="M151.41,72l-20.06,56.07,39.45,8.39Zm37,124.81-9.36-31.34-56.39-12-9.59,27.32-32.31-6.87L138.48,20.32l24.3,5.16,57.94,178.18Z"/><path class="cls-20" d="M305.64,221.71V148.33c0-16.54-10-24.26-19.17-26.21s-19.39,1.47-19.39,18v73.38l-29-6.16V86l28.3,6v11.18c7.58-6.77,18.28-8.69,29-6.42a46.94,46.94,0,0,1,27.41,16.55c9.36,11.77,11.82,23.71,11.82,37v77.58Z"/><path class="cls-20" d="M409.51,148.27c-17.39-3.69-19.62,10.74-19.62,30.54s2.23,35.42,19.62,39.12S429.34,207,429.34,187.2,426.89,152,409.51,148.27ZM430,248.14V236.73c-8,7.61-16.49,9.3-28.75,6.7-11.37-2.42-22.07-8.88-28.53-17-11.59-14.58-11.81-35.59-11.81-53.76s.22-38.86,11.81-48.51c6.46-5.38,16.94-7.35,28.31-4.93,11.81,2.51,20.72,7.67,28.3,18.13V82.14l29,6.16V254.16Z"/><path class="cls-20" d="M553.93,186.2c-4.46-5.61-8.24-9-15.38-10.5-8.91-1.89-18.72,3-18.72,18.39v73.14l-29-6.15V139.71l28.3,6v11.64c5.57-5.8,16.72-9.49,29.2-6.84,11.37,2.42,19.39,7.15,27.41,17.25Z"/><path class="cls-20" d="M649.55,209.78a26.55,26.55,0,0,0-19.39-16.7c-9.81-2.08-16.27,1.9-19.39,8.46A30.51,30.51,0,0,0,608.09,214l44.13,9.38A39.25,39.25,0,0,0,649.55,209.78Zm-41.46,25c0,15.6,9.14,29,25.41,32.42,12.71,2.7,19,.3,26.3-5.83L677.41,283c-11.81,9.84-23.18,14.18-44.13,9.73-27.42-5.83-53.72-24.47-53.72-73.62,0-39.6,20.51-57.61,50.6-51.21,32.32,6.87,50.59,35.45,50.59,68.76v13.51Z"/><polygon class="cls-20" points="822.28 331.52 798.43 326.45 774.14 245.12 749.85 316.13 726 311.06 690.34 182.11 721.09 188.65 739.82 267.64 763.44 197.65 784.61 202.15 808.46 282.23 827.18 211.2 857.72 217.69 822.28 331.52"/><polygon class="cls-20" points="919.23 352.13 919.23 326.04 986.99 229.56 922.13 215.77 922.13 186.88 1023.54 208.44 1023.54 234.06 955.56 330.97 1023.54 345.42 1023.54 374.3 919.23 352.13"/><path class="cls-20" d="M1115.37,393.82V319.74c0-16.07-9.81-23.51-18.95-25.46s-18.72,1.61-18.72,17.46v74.07l-29-6.16V213.79l29,6.16v55.68c7.8-6.73,17.61-8.84,27.86-6.66,25.41,5.4,38.78,26.88,38.78,52.5V400Z"/><path class="cls-20" d="M1233.27,328.73a22.76,22.76,0,0,0-13.6-8.25c-5.79-1.23-10-.27-13.37,2.52-6,5-6.68,15.35-6.68,27.93s.66,23.43,6.68,31a22.16,22.16,0,0,0,13.37,8.2c5.8,1.24,10.26.32,13.6-2.46,6-5,6.69-15.59,6.69-28.17S1239.29,336.3,1233.27,328.73Zm22.51,81.42c-7.13,6.41-18.94,10.89-36.11,7.24a59.87,59.87,0,0,1-35.88-22.54c-10.47-13.64-13.15-28-13.15-50.08,0-21.9,2.68-35.07,13.15-44.26,7.13-6.41,18.72-10.93,35.88-7.28a60.45,60.45,0,0,1,36.11,22.58c10.48,13.64,13.15,27.95,13.15,49.85C1268.93,387.79,1266.26,401,1255.78,410.15Z"/><path class="cls-20" d="M1363.43,446.55V435.37c-7.57,6.77-18.27,8.69-29,6.42a46.94,46.94,0,0,1-27.41-16.55c-9.36-11.77-11.82-23.7-11.82-37V310.68l29,6.16v73.38c0,16.54,10,24.26,19.17,26.21s19.39-1.47,19.39-18V325l29,6.16V452.56Z"/><path class="cls-20" d="M161.9,26.31"/></g><g class="cls-21"><path class="cls-22" d="M147.06,76.79,127,132.86l39.45,8.38Zm37,124.8-9.37-31.34-56.38-12-9.59,27.31L76.4,178.71,134.13,25.12l24.29,5.16,58,178.18Z"/><path class="cls-22" d="M301.29,226.51V153.13c0-16.54-10-24.26-19.17-26.2s-19.39,1.47-19.39,18v73.38l-29-6.16V90.79l28.3,6V108c7.58-6.78,18.28-8.7,29-6.42a46.88,46.88,0,0,1,27.41,16.54c9.36,11.77,11.81,23.71,11.81,37v77.57Z"/><path class="cls-22" d="M405.15,153.08c-17.38-3.7-19.61,10.74-19.61,30.54s2.23,35.42,19.61,39.11S425,211.81,425,192,422.54,156.77,405.15,153.08ZM425.66,253V241.53c-8,7.62-16.49,9.31-28.75,6.7-11.37-2.41-22.07-8.88-28.53-17-11.59-14.58-11.81-35.59-11.81-53.76s.22-38.85,11.81-48.5c6.46-5.39,16.94-7.35,28.3-4.94,11.82,2.52,20.73,7.67,28.31,18.13V86.94l29,6.16V259Z"/><path class="cls-22" d="M549.58,191c-4.46-5.61-8.25-9-15.38-10.49-8.91-1.9-18.72,3-18.72,18.38V272l-29-6.16V144.51l28.31,6v11.65c5.57-5.81,16.72-9.49,29.2-6.84,11.36,2.42,19.39,7.15,27.41,17.24Z"/><path class="cls-22" d="M645.2,214.58a26.57,26.57,0,0,0-19.39-16.7c-9.81-2.08-16.27,1.9-19.39,8.46a30.43,30.43,0,0,0-2.68,12.48l44.13,9.38A39.3,39.3,0,0,0,645.2,214.58Zm-41.46,25c0,15.61,9.14,29,25.41,32.42,12.7,2.7,18.94.3,26.3-5.82l17.61,21.68c-11.82,9.83-23.18,14.17-44.13,9.72-27.42-5.83-53.72-24.46-53.72-73.61,0-39.6,20.51-57.61,50.6-51.21,32.31,6.86,50.59,35.44,50.59,68.75V255Z"/><polygon class="cls-22" points="817.93 336.33 794.08 331.26 769.79 249.92 745.49 320.93 721.64 315.86 685.98 186.91 716.74 193.45 735.46 272.44 759.09 202.45 780.26 206.95 804.11 287.03 822.83 216 853.37 222.49 817.93 336.33"/><polygon class="cls-22" points="914.88 356.94 914.88 330.85 982.64 234.36 917.78 220.58 917.78 191.69 1019.19 213.25 1019.19 238.87 951.21 335.77 1019.19 350.22 1019.19 379.11 914.88 356.94"/><path class="cls-22" d="M1111,398.63V324.55c0-16.08-9.81-23.52-19-25.46s-18.72,1.61-18.72,17.45v74.08l-29-6.16V218.6l29,6.16v55.67c7.8-6.72,17.61-8.83,27.86-6.65,25.41,5.4,38.78,26.87,38.78,52.5v78.5Z"/><path class="cls-22" d="M1228.92,333.53a22.79,22.79,0,0,0-13.6-8.24c-5.79-1.24-10-.27-13.37,2.51-6,5-6.69,15.35-6.69,27.93s.67,23.44,6.69,31a22.21,22.21,0,0,0,13.37,8.2c5.8,1.23,10.26.31,13.6-2.47,6-5,6.68-15.58,6.68-28.16S1234.94,341.1,1228.92,333.53ZM1251.43,415c-7.13,6.4-19,10.88-36.11,7.23a59.86,59.86,0,0,1-35.88-22.53c-10.48-13.64-13.15-28-13.15-50.09,0-21.89,2.67-35.07,13.15-44.26,7.13-6.4,18.72-10.93,35.88-7.28a60.57,60.57,0,0,1,36.11,22.58c10.48,13.65,13.15,28,13.15,49.86C1264.58,392.6,1261.91,405.77,1251.43,415Z"/><path class="cls-22" d="M1359.08,451.35V440.17c-7.58,6.78-18.27,8.7-29,6.42a46.93,46.93,0,0,1-27.42-16.54c-9.36-11.77-11.81-23.71-11.81-37V315.49l29,6.16V395c0,16.54,10,24.26,19.16,26.2s19.39-1.47,19.39-18V329.84l29,6.16V457.37Z"/><path class="cls-22" d="M157.55,31.11"/></g><path class="cls-23" d="M142.4,83.86l-20.06,56.07,39.45,8.38Zm37,124.8L170,177.32l-56.38-12-9.59,27.32-32.32-6.87L129.47,32.19l24.29,5.16,58,178.18Z"/><path class="cls-23" d="M296.63,233.58V160.2c0-16.54-10-24.26-19.17-26.2s-19.39,1.47-19.39,18v73.37l-29-6.15V97.86l28.3,6v11.18c7.58-6.78,18.28-8.7,29-6.42a46.88,46.88,0,0,1,27.41,16.54c9.36,11.77,11.81,23.71,11.81,37v77.57Z"/><path class="cls-23" d="M400.49,160.15c-17.38-3.7-19.61,10.74-19.61,30.54s2.23,35.42,19.61,39.11,19.84-10.93,19.84-30.73S417.88,163.84,400.49,160.15ZM421,260V248.6c-8,7.61-16.5,9.31-28.75,6.7-11.37-2.41-22.07-8.88-28.53-17-11.59-14.58-11.82-35.59-11.82-53.76s.23-38.86,11.82-48.5c6.46-5.39,16.94-7.35,28.3-4.94,11.82,2.51,20.73,7.67,28.31,18.13V94l29,6.16V266Z"/><path class="cls-23" d="M544.92,198.07c-4.46-5.61-8.25-9-15.38-10.49-8.91-1.9-18.72,3-18.72,18.38v73.15l-29-6.16V151.58l28.31,6v11.65c5.57-5.81,16.72-9.5,29.2-6.84,11.36,2.41,19.39,7.15,27.41,17.24Z"/><path class="cls-23" d="M640.54,221.65A26.57,26.57,0,0,0,621.15,205c-9.81-2.08-16.28,1.9-19.4,8.46a30.6,30.6,0,0,0-2.67,12.48l44.13,9.38A39.3,39.3,0,0,0,640.54,221.65Zm-41.46,25c0,15.61,9.14,29,25.41,32.42,12.7,2.7,18.94.3,26.3-5.82L668.4,294.9c-11.82,9.83-23.18,14.17-44.13,9.72-27.42-5.83-53.72-24.46-53.72-73.62,0-39.6,20.51-57.6,50.6-51.21,32.31,6.87,50.59,35.45,50.59,68.76v13.51Z"/><path class="cls-23" d="M813.27,343.4l-23.85-5.07L765.13,257l-24.3,71L717,322.93,681.32,194l30.76,6.54,18.72,79,23.63-70L775.6,214l23.85,80.08,18.72-71,30.54,6.49Z"/><path class="cls-23" d="M910.22,364V337.91L978,241.43l-64.86-13.79V198.76l101.41,21.55v25.63l-68,96.9,68,14.45v28.88Z"/><path class="cls-23" d="M1106.36,405.69V331.62c0-16.08-9.81-23.52-18.95-25.46s-18.72,1.61-18.72,17.45v74.08l-29-6.16V225.67l29,6.16V287.5c7.8-6.73,17.61-8.84,27.86-6.66,25.41,5.4,38.78,26.88,38.78,52.51v78.5Z"/><path class="cls-23" d="M1224.26,340.6a22.88,22.88,0,0,0-13.6-8.25c-5.79-1.23-10-.26-13.37,2.52-6,5-6.69,15.35-6.69,27.93s.67,23.44,6.69,31a22.21,22.21,0,0,0,13.37,8.2c5.8,1.23,10.25.31,13.6-2.47,6-5,6.68-15.59,6.68-28.17S1230.28,348.17,1224.26,340.6ZM1246.77,422c-7.13,6.4-19,10.88-36.11,7.23a59.91,59.91,0,0,1-35.88-22.53c-10.48-13.65-13.15-28-13.15-50.09,0-21.9,2.67-35.07,13.15-44.26,7.13-6.4,18.72-10.93,35.88-7.28a60.57,60.57,0,0,1,36.11,22.58c10.47,13.64,13.15,28,13.15,49.85C1259.92,399.66,1257.24,412.84,1246.77,422Z"/><path class="cls-23" d="M1354.42,458.42V447.24c-7.58,6.78-18.27,8.69-29,6.42A46.93,46.93,0,0,1,1298,437.12c-9.36-11.78-11.81-23.71-11.81-37V322.56l29,6.16V402.1c0,16.54,10,24.26,19.16,26.2s19.39-1.47,19.39-18V336.91l29,6.16V464.44Z"/><path class="cls-23" d="M152.89,38.18"/><path class="cls-24" d="M137.46,89.67,117.4,145.74l39.45,8.39Zm37,124.8-9.36-31.34-56.39-12-9.59,27.31-32.31-6.87L124.53,38l24.3,5.17,57.95,178.17Z"/><path class="cls-24" d="M291.69,239.39V166c0-16.55-10-24.27-19.17-26.21s-19.39,1.47-19.39,18V231.2l-29-6.16V103.67l28.31,6v11.18c7.57-6.77,18.27-8.69,29-6.42A46.88,46.88,0,0,1,308.85,131c9.37,11.78,11.82,23.71,11.82,37v77.57Z"/><path class="cls-24" d="M395.56,166c-17.39-3.69-19.62,10.74-19.62,30.54s2.23,35.42,19.62,39.11,19.83-10.92,19.83-30.72S412.94,169.66,395.56,166Zm20.5,99.87V254.41c-8,7.62-16.49,9.31-28.75,6.71-11.37-2.42-22.07-8.89-28.53-17C347.19,229.53,347,208.51,347,190.34s.22-38.85,11.81-48.5c6.46-5.38,16.94-7.35,28.31-4.93,11.81,2.51,20.73,7.66,28.3,18.13V99.83l29,6.16V271.85Z"/><path class="cls-24" d="M540,203.88c-4.45-5.6-8.24-9-15.38-10.49-8.91-1.89-18.72,3-18.72,18.39v73.14l-29-6.16V157.4l28.3,6v11.65c5.58-5.8,16.72-9.49,29.2-6.84,11.37,2.42,19.39,7.15,27.42,17.24Z"/><path class="cls-24" d="M635.6,227.47a26.51,26.51,0,0,0-19.39-16.7c-9.81-2.09-16.27,1.9-19.39,8.45a30.76,30.76,0,0,0-2.68,12.48l44.13,9.38A39.25,39.25,0,0,0,635.6,227.47Zm-41.46,25c0,15.61,9.14,29,25.41,32.43,12.71,2.7,19,.3,26.3-5.83l17.61,21.68c-11.81,9.84-23.18,14.18-44.13,9.72-27.42-5.82-53.71-24.46-53.71-73.61,0-39.6,20.5-57.61,50.59-51.21,32.32,6.87,50.59,35.44,50.59,68.76v13.51Z"/><polygon class="cls-24" points="808.33 349.21 784.48 344.14 760.19 262.8 735.9 333.81 712.05 328.74 676.39 199.8 707.14 206.33 725.87 285.32 749.49 215.34 770.66 219.84 794.51 299.92 813.24 228.88 843.77 235.38 808.33 349.21"/><polygon class="cls-24" points="905.28 369.82 905.28 343.73 973.04 247.24 908.18 233.46 908.18 204.57 1009.59 226.13 1009.59 251.75 941.62 348.65 1009.59 363.1 1009.59 391.99 905.28 369.82"/><path class="cls-24" d="M1101.42,411.51V337.43c0-16.08-9.81-23.52-19-25.46s-18.72,1.61-18.72,17.45V403.5l-29-6.16V231.48l29,6.16v55.68c7.8-6.73,17.61-8.84,27.86-6.66,25.41,5.4,38.78,26.88,38.78,52.5v78.51Z"/><path class="cls-24" d="M1219.32,346.42a22.76,22.76,0,0,0-13.59-8.25c-5.8-1.23-10-.27-13.38,2.51-6,5-6.68,15.35-6.68,27.93s.66,23.44,6.68,31a22.23,22.23,0,0,0,13.38,8.2c5.79,1.23,10.25.32,13.59-2.47,6-5,6.69-15.58,6.69-28.16S1225.34,354,1219.32,346.42Zm22.51,81.42c-7.13,6.41-18.94,10.88-36.1,7.24a59.87,59.87,0,0,1-35.89-22.54c-10.47-13.64-13.15-28-13.15-50.09,0-21.89,2.68-35.07,13.15-44.26,7.13-6.4,18.72-10.92,35.89-7.28a60.51,60.51,0,0,1,36.1,22.59c10.48,13.64,13.15,27.95,13.15,49.85C1255,405.48,1252.31,418.65,1241.83,427.84Z"/><path class="cls-24" d="M1349.49,464.23V453.05c-7.58,6.78-18.28,8.7-29,6.42a46.88,46.88,0,0,1-27.41-16.54c-9.36-11.77-11.82-23.71-11.82-37V328.37l29,6.16v73.38c0,16.54,10,24.26,19.17,26.2s19.39-1.47,19.39-18V342.73l29,6.15V470.25Z"/><path class="cls-24" d="M148,44"/><path class="cls-25" d="M130.85,93.85l-20,56.07,39.44,8.39Zm37,124.81-9.36-31.34-56.39-12-9.58,27.32L60.2,195.78,117.93,42.19l24.29,5.16,57.95,178.18Z"/><path class="cls-25" d="M285.09,243.58V170.2c0-16.54-10-24.26-19.17-26.21s-19.39,1.47-19.39,18v73.38l-29-6.16V107.86l28.31,6v11.18c7.58-6.77,18.28-8.69,29-6.42a47,47,0,0,1,27.42,16.55c9.36,11.77,11.81,23.71,11.81,37v77.58Z"/><path class="cls-25" d="M389,170.14c-17.38-3.69-19.61,10.74-19.61,30.55S371.57,236.1,389,239.8s19.84-10.93,19.84-30.73S406.34,173.84,389,170.14ZM409.46,270V258.6c-8,7.61-16.5,9.31-28.76,6.7-11.36-2.42-22.06-8.88-28.52-17-11.59-14.58-11.82-35.59-11.82-53.76s.23-38.86,11.82-48.51c6.46-5.38,16.93-7.35,28.3-4.93,11.81,2.51,20.73,7.67,28.31,18.13V104l29,6.16V276Z"/><path class="cls-25" d="M533.38,208.07c-4.46-5.61-8.25-9-15.38-10.5-8.92-1.89-18.72,3-18.72,18.39v73.15l-29-6.16V161.58l28.31,6v11.64c5.57-5.8,16.71-9.49,29.19-6.84,11.37,2.42,19.4,7.15,27.42,17.25Z"/><path class="cls-25" d="M629,231.65A26.53,26.53,0,0,0,609.6,215c-9.8-2.08-16.27,1.9-19.39,8.46a30.51,30.51,0,0,0-2.67,12.47l44.13,9.38A39.07,39.07,0,0,0,629,231.65Zm-41.45,25c0,15.6,9.14,29,25.41,32.42,12.7,2.7,18.94.3,26.3-5.82l17.6,21.68c-11.81,9.83-23.18,14.17-44.13,9.72C585.31,308.79,559,290.15,559,241c0-39.6,20.5-57.6,50.59-51.21,32.32,6.87,50.6,35.45,50.6,68.76v13.51Z"/><polygon class="cls-25" points="801.73 353.39 777.88 348.32 753.58 266.99 729.29 338 705.44 332.93 669.78 203.98 700.54 210.52 719.26 289.51 742.89 219.52 764.06 224.02 787.91 304.1 806.63 233.07 837.16 239.56 801.73 353.39"/><polygon class="cls-25" points="898.68 374 898.68 347.91 966.43 251.43 901.58 237.64 901.58 208.76 1002.99 230.31 1002.99 255.94 935.01 352.84 1002.99 367.29 1002.99 396.17 898.68 374"/><path class="cls-25" d="M1094.81,415.69V341.61c0-16.07-9.8-23.51-18.94-25.46s-18.72,1.62-18.72,17.46v74.07l-29-6.15V235.66l29,6.16V297.5c7.8-6.73,17.6-8.84,27.86-6.66,25.41,5.4,38.78,26.88,38.78,52.5v78.51Z"/><path class="cls-25" d="M1212.72,350.6a22.82,22.82,0,0,0-13.6-8.25c-5.8-1.23-10-.27-13.37,2.52-6,5-6.69,15.35-6.69,27.93s.67,23.43,6.69,31a22.13,22.13,0,0,0,13.37,8.2c5.79,1.24,10.25.32,13.6-2.46,6-5,6.68-15.59,6.68-28.17S1218.73,358.17,1212.72,350.6ZM1235.23,432c-7.14,6.4-19,10.88-36.11,7.23a59.87,59.87,0,0,1-35.88-22.54c-10.48-13.64-13.15-28-13.15-50.08,0-21.9,2.67-35.07,13.15-44.26,7.13-6.41,18.72-10.93,35.88-7.28a60.51,60.51,0,0,1,36.11,22.58c10.47,13.64,13.15,27.95,13.15,49.85C1248.38,409.66,1245.7,422.84,1235.23,432Z"/><path class="cls-25" d="M1342.88,468.42V457.24c-7.58,6.77-18.28,8.69-29,6.42a47,47,0,0,1-27.42-16.54c-9.36-11.78-11.81-23.71-11.81-37V332.56l29,6.15v73.38c0,16.54,10,24.27,19.17,26.21s19.39-1.47,19.39-18V346.91l29,6.16V474.44Z"/><path class="cls-25" d="M141.35,48.18"/><path class="cls-26" d="M123,96.63,103,152.71l39.45,8.38Zm37,124.81-9.36-31.34-56.39-12-9.59,27.32-32.31-6.87L110.1,45l24.3,5.16,57.94,178.18Z"/><path class="cls-26" d="M277.26,246.36V173c0-16.54-10-24.26-19.17-26.21s-19.39,1.47-19.39,18v73.38l-29-6.16V110.64l28.3,6v11.19c7.58-6.78,18.28-8.7,29-6.42A46.88,46.88,0,0,1,294.42,138c9.36,11.77,11.82,23.71,11.82,37v77.57Z"/><path class="cls-26" d="M381.13,172.93c-17.39-3.7-19.62,10.74-19.62,30.54s2.23,35.41,19.62,39.11S401,231.65,401,211.85,398.51,176.62,381.13,172.93Zm20.5,99.86V261.38c-8,7.61-16.49,9.31-28.75,6.7-11.37-2.42-22.07-8.88-28.53-17-11.59-14.58-11.81-35.59-11.81-53.76s.22-38.86,11.81-48.51c6.46-5.38,16.94-7.35,28.31-4.93,11.81,2.51,20.72,7.67,28.3,18.13V106.79l29,6.16V278.81Z"/><path class="cls-26" d="M525.55,210.85c-4.46-5.61-8.24-9-15.38-10.49-8.91-1.9-18.72,3-18.72,18.38v73.15l-29-6.16V164.36l28.3,6V182c5.57-5.8,16.72-9.49,29.2-6.83,11.37,2.41,19.39,7.15,27.41,17.24Z"/><path class="cls-26" d="M621.17,234.43a26.57,26.57,0,0,0-19.39-16.7c-9.81-2.08-16.27,1.9-19.39,8.46a30.56,30.56,0,0,0-2.68,12.48l44.13,9.38A39.3,39.3,0,0,0,621.17,234.43Zm-41.46,25c0,15.61,9.14,29,25.41,32.42,12.71,2.7,19,.3,26.3-5.82L649,307.68c-11.81,9.83-23.18,14.17-44.13,9.72-27.42-5.83-53.72-24.46-53.72-73.62,0-39.6,20.51-57.6,50.6-51.21,32.32,6.87,50.59,35.45,50.59,68.76v13.51Z"/><polygon class="cls-26" points="793.9 356.17 770.05 351.11 745.76 269.77 721.47 340.78 697.62 335.71 661.96 206.76 692.71 213.3 711.43 292.29 735.06 222.3 756.23 226.8 780.08 306.88 798.8 235.85 829.34 242.34 793.9 356.17"/><polygon class="cls-26" points="890.85 376.78 890.85 350.69 958.61 254.21 893.75 240.42 893.75 211.54 995.16 233.09 995.16 258.72 927.18 355.62 995.16 370.07 995.16 398.95 890.85 376.78"/><path class="cls-26" d="M1087,418.47V344.39c0-16.07-9.81-23.51-19-25.46s-18.72,1.62-18.72,17.46v74.08l-29-6.16V238.45l29,6.15v55.68c7.8-6.73,17.61-8.84,27.86-6.66,25.41,5.4,38.78,26.88,38.78,52.51v78.5Z"/><path class="cls-26" d="M1204.89,353.38a22.81,22.81,0,0,0-13.6-8.25c-5.79-1.23-10-.27-13.37,2.52-6,5-6.68,15.35-6.68,27.93s.66,23.44,6.68,31a22.22,22.22,0,0,0,13.37,8.21c5.8,1.23,10.26.31,13.6-2.47,6-5,6.69-15.59,6.69-28.17S1210.91,361,1204.89,353.38Zm22.51,81.43c-7.13,6.4-18.94,10.88-36.11,7.23a59.87,59.87,0,0,1-35.88-22.54c-10.47-13.64-13.15-27.95-13.15-50.08,0-21.9,2.68-35.07,13.15-44.26,7.13-6.4,18.72-10.93,35.88-7.28a60.54,60.54,0,0,1,36.11,22.58c10.48,13.64,13.15,28,13.15,49.85C1240.55,412.44,1237.88,425.62,1227.4,434.81Z"/><path class="cls-26" d="M1335.05,471.2V460c-7.57,6.77-18.27,8.69-29,6.42a46.88,46.88,0,0,1-27.41-16.54c-9.36-11.78-11.82-23.71-11.82-37V335.34l29,6.16v73.37c0,16.54,10,24.27,19.17,26.21s19.39-1.47,19.39-18V349.69l29,6.16V477.22Z"/><path class="cls-26" d="M133.52,51"/><path class="cls-27" d="M114.44,98.24,94.38,154.31l39.45,8.39Zm37,124.81-9.36-31.35-56.39-12L76.1,207l-32.32-6.87L101.51,46.57l24.29,5.17,58,178.17Z"/><path class="cls-27" d="M268.67,248V174.59c0-16.55-10-24.27-19.17-26.21s-19.39,1.47-19.39,18v73.38l-29-6.16V112.24l28.3,6v11.18c7.58-6.77,18.28-8.69,29-6.42a46.88,46.88,0,0,1,27.41,16.54c9.36,11.78,11.81,23.71,11.81,37v77.57Z"/><path class="cls-27" d="M372.53,174.53c-17.38-3.69-19.61,10.74-19.61,30.54s2.23,35.42,19.61,39.11,19.84-10.92,19.84-30.72S389.92,178.23,372.53,174.53ZM393,274.4V263c-8,7.62-16.5,9.31-28.75,6.71-11.37-2.42-22.07-8.89-28.53-17-11.59-14.57-11.82-35.59-11.82-53.76s.23-38.85,11.82-48.5c6.46-5.38,16.94-7.35,28.3-4.93,11.82,2.51,20.73,7.66,28.31,18.13V108.4l29,6.16V280.42Z"/><path class="cls-27" d="M517,212.45c-4.46-5.6-8.25-9-15.38-10.49-8.92-1.89-18.72,3-18.72,18.39v73.14l-29-6.16V166l28.31,6v11.65c5.57-5.8,16.72-9.49,29.2-6.84,11.36,2.42,19.39,7.15,27.41,17.24Z"/><path class="cls-27" d="M612.58,236a26.52,26.52,0,0,0-19.4-16.7c-9.8-2.09-16.27,1.9-19.39,8.45a30.6,30.6,0,0,0-2.67,12.48l44.13,9.38A39.25,39.25,0,0,0,612.58,236Zm-41.46,25c0,15.61,9.14,29,25.41,32.43,12.7,2.7,18.94.3,26.3-5.83l17.61,21.68c-11.82,9.84-23.18,14.18-44.14,9.72-27.41-5.82-53.71-24.46-53.71-73.61,0-39.6,20.51-57.61,50.59-51.21,32.32,6.87,50.6,35.44,50.6,68.76v13.51Z"/><polygon class="cls-27" points="785.31 357.78 761.46 352.71 737.17 271.37 712.87 342.38 689.02 337.31 653.36 208.37 684.12 214.9 702.84 293.89 726.47 223.91 747.64 228.41 771.49 308.49 790.21 237.45 820.75 243.94 785.31 357.78"/><polygon class="cls-27" points="882.26 378.39 882.26 352.3 950.02 255.81 885.16 242.03 885.16 213.14 986.57 234.7 986.57 260.32 918.59 357.22 986.57 371.67 986.57 400.56 882.26 378.39"/><path class="cls-27" d="M1078.4,420.08V346c0-16.07-9.81-23.52-19-25.46s-18.72,1.61-18.72,17.45v74.08l-29-6.16V240.05l29,6.16v55.68c7.8-6.73,17.61-8.84,27.86-6.66,25.41,5.4,38.78,26.88,38.78,52.5v78.51Z"/><path class="cls-27" d="M1196.3,355a22.79,22.79,0,0,0-13.6-8.25c-5.79-1.23-10-.27-13.37,2.51-6,5-6.69,15.36-6.69,27.93s.67,23.44,6.69,31a22.21,22.21,0,0,0,13.37,8.2c5.8,1.23,10.25.32,13.6-2.47,6-5,6.68-15.58,6.68-28.16S1202.32,362.55,1196.3,355Zm22.51,81.42c-7.13,6.41-19,10.88-36.11,7.24a59.87,59.87,0,0,1-35.88-22.54c-10.48-13.64-13.15-27.95-13.15-50.08,0-21.9,2.67-35.08,13.15-44.27,7.13-6.4,18.72-10.92,35.88-7.28a60.54,60.54,0,0,1,36.11,22.59C1229.28,355.71,1232,370,1232,391.92,1232,414.05,1229.28,427.22,1218.81,436.41Z"/><path class="cls-27" d="M1326.46,472.8V461.62c-7.58,6.78-18.27,8.7-29,6.42a46.93,46.93,0,0,1-27.42-16.54c-9.36-11.77-11.81-23.71-11.81-37V336.94l29,6.16v73.38c0,16.54,10,24.26,19.16,26.2s19.39-1.47,19.39-18V351.3l29,6.15V478.82Z"/><path class="cls-27" d="M124.93,52.56"/><path class="cls-28" d="M105.53,98.9,85.47,155l39.45,8.38Zm37,124.8-9.36-31.34-56.39-12-9.58,27.32-32.32-6.87L92.6,47.23l24.29,5.16,58,178.18Z"/><path class="cls-28" d="M259.76,248.62V175.24c0-16.54-10-24.26-19.17-26.2s-19.39,1.46-19.39,18v73.38l-29-6.15V112.9l28.3,6V130.1c7.58-6.78,18.28-8.7,29-6.42a46.88,46.88,0,0,1,27.41,16.54c9.36,11.77,11.81,23.71,11.81,37v77.57Z"/><path class="cls-28" d="M363.62,175.19c-17.38-3.7-19.61,10.74-19.61,30.54s2.23,35.41,19.61,39.11,19.84-10.93,19.84-30.73S381,178.88,363.62,175.19Zm20.51,99.87V263.64c-8,7.61-16.5,9.31-28.75,6.7-11.37-2.41-22.07-8.88-28.53-17C315.26,238.75,315,217.74,315,199.57s.23-38.86,11.82-48.51c6.46-5.38,16.94-7.34,28.3-4.93,11.82,2.51,20.73,7.67,28.31,18.13V109.05l29,6.16V281.07Z"/><path class="cls-28" d="M508.05,213.11c-4.46-5.61-8.25-9-15.38-10.49-8.92-1.9-18.72,3-18.72,18.38v73.15L445,288V166.62l28.31,6v11.64c5.57-5.8,16.71-9.49,29.2-6.83,11.36,2.41,19.39,7.15,27.41,17.24Z"/><path class="cls-28" d="M603.66,236.69A26.55,26.55,0,0,0,584.27,220c-9.8-2.08-16.27,1.9-19.39,8.46a30.6,30.6,0,0,0-2.67,12.48l44.13,9.38A39.08,39.08,0,0,0,603.66,236.69Zm-41.45,25c0,15.61,9.14,29,25.41,32.42,12.7,2.7,18.94.3,26.3-5.82l17.6,21.68c-11.81,9.83-23.17,14.17-44.13,9.72C560,313.83,533.68,295.2,533.68,246c0-39.6,20.51-57.6,50.59-51.21,32.32,6.87,50.6,35.45,50.6,68.76V277.1Z"/><polygon class="cls-28" points="776.4 358.44 752.55 353.37 728.26 272.03 703.96 343.04 680.11 337.97 644.45 209.02 675.21 215.56 693.93 294.55 717.56 224.56 738.73 229.06 762.58 309.14 781.3 238.11 811.84 244.6 776.4 358.44"/><polygon class="cls-28" points="873.35 379.04 873.35 352.95 941.11 256.47 876.25 242.68 876.25 213.8 977.66 235.35 977.66 260.98 909.68 357.88 977.66 372.33 977.66 401.21 873.35 379.04"/><path class="cls-28" d="M1069.48,420.73V346.65c0-16.07-9.8-23.51-18.94-25.45s-18.72,1.61-18.72,17.45v74.08l-29-6.16V240.71l29,6.16v55.67c7.8-6.73,17.61-8.84,27.86-6.66,25.41,5.4,38.78,26.88,38.78,52.51v78.5Z"/><path class="cls-28" d="M1187.39,355.64a22.84,22.84,0,0,0-13.6-8.25c-5.79-1.23-10-.26-13.37,2.52-6,5-6.69,15.35-6.69,27.93s.67,23.44,6.69,31a22.25,22.25,0,0,0,13.37,8.2c5.8,1.23,10.25.31,13.6-2.47,6-5,6.68-15.59,6.68-28.17S1193.4,363.21,1187.39,355.64Zm22.51,81.43c-7.13,6.4-19,10.88-36.11,7.23a59.87,59.87,0,0,1-35.88-22.54c-10.48-13.64-13.15-27.95-13.15-50.08,0-21.9,2.67-35.07,13.15-44.26,7.13-6.4,18.72-10.93,35.88-7.28a60.57,60.57,0,0,1,36.11,22.58c10.47,13.64,13.15,28,13.15,49.85C1223.05,414.7,1220.37,427.88,1209.9,437.07Z"/><path class="cls-28" d="M1317.55,473.46V462.28c-7.58,6.77-18.28,8.69-29,6.42a46.93,46.93,0,0,1-27.42-16.54c-9.36-11.78-11.81-23.71-11.81-37V337.6l29,6.16v73.37c0,16.54,10,24.27,19.16,26.21s19.39-1.47,19.39-18V352l29,6.16V479.48Z"/><path class="cls-28" d="M116,53.22"/><path class="cls-29" d="M96.75,98.83,76.69,154.9l39.45,8.38Zm37,124.8-9.36-31.34L68,180.31l-9.59,27.31L26.1,200.75,83.82,47.16l24.3,5.16L166.06,230.5Z"/><path class="cls-29" d="M251,248.55V175.17c0-16.54-10-24.26-19.17-26.2s-19.39,1.47-19.39,18v73.38l-29-6.16V112.83l28.3,6V130c7.58-6.78,18.28-8.7,29-6.42a46.88,46.88,0,0,1,27.41,16.54c9.36,11.77,11.82,23.71,11.82,37v77.57Z"/><path class="cls-29" d="M354.85,175.12c-17.39-3.7-19.62,10.74-19.62,30.54s2.23,35.42,19.62,39.11,19.83-10.92,19.83-30.72S372.23,178.81,354.85,175.12ZM375.35,275V263.57c-8,7.62-16.49,9.31-28.75,6.7-11.37-2.41-22.07-8.88-28.53-17-11.59-14.58-11.81-35.59-11.81-53.76s.22-38.85,11.81-48.5c6.46-5.39,16.94-7.35,28.31-4.94,11.81,2.52,20.72,7.67,28.3,18.13V109l29,6.16V281Z"/><path class="cls-29" d="M499.27,213c-4.46-5.61-8.25-9-15.38-10.49-8.91-1.9-18.72,3-18.72,18.38v73.15l-29-6.16V166.55l28.3,6v11.65c5.57-5.81,16.72-9.49,29.2-6.84,11.37,2.42,19.39,7.15,27.41,17.24Z"/><path class="cls-29" d="M594.89,236.62a26.57,26.57,0,0,0-19.39-16.7c-9.81-2.08-16.27,1.9-19.39,8.46a30.6,30.6,0,0,0-2.68,12.48l44.13,9.38A39.3,39.3,0,0,0,594.89,236.62Zm-41.46,25c0,15.61,9.14,29,25.41,32.42,12.7,2.7,18.95.3,26.3-5.82l17.61,21.68c-11.81,9.83-23.18,14.17-44.13,9.72C551.2,313.76,524.9,295.13,524.9,246c0-39.6,20.51-57.61,50.6-51.21,32.32,6.86,50.59,35.44,50.59,68.75V277Z"/><polygon class="cls-29" points="767.62 358.37 743.77 353.3 719.48 271.96 695.18 342.97 671.34 337.9 635.68 208.96 666.43 215.49 685.15 294.48 708.78 224.49 729.95 228.99 753.8 309.07 772.52 238.04 803.06 244.53 767.62 358.37"/><polygon class="cls-29" points="864.57 378.98 864.57 352.88 932.33 256.4 867.47 242.62 867.47 213.73 968.88 235.29 968.88 260.91 900.9 357.81 968.88 372.26 968.88 401.15 864.57 378.98"/><path class="cls-29" d="M1060.71,420.67V346.59c0-16.08-9.81-23.52-19-25.46S1023,322.74,1023,338.58v74.08l-29-6.16V240.64l29,6.16v55.67c7.8-6.72,17.61-8.83,27.86-6.65,25.41,5.4,38.78,26.87,38.78,52.5v78.5Z"/><path class="cls-29" d="M1178.61,355.57a22.79,22.79,0,0,0-13.6-8.24c-5.79-1.24-10-.27-13.37,2.51-6,5-6.69,15.35-6.69,27.93s.67,23.44,6.69,31A22.21,22.21,0,0,0,1165,417c5.8,1.23,10.26.31,13.6-2.47,6-5,6.69-15.58,6.69-28.16S1184.63,363.14,1178.61,355.57ZM1201.12,437c-7.13,6.4-18.94,10.88-36.11,7.23a59.86,59.86,0,0,1-35.88-22.53c-10.47-13.64-13.15-28-13.15-50.09,0-21.89,2.68-35.07,13.15-44.26,7.13-6.4,18.72-10.93,35.88-7.28a60.54,60.54,0,0,1,36.11,22.58c10.48,13.65,13.15,28,13.15,49.86C1214.27,414.64,1211.6,427.81,1201.12,437Z"/><path class="cls-29" d="M1308.77,473.39V462.21c-7.57,6.78-18.27,8.7-29,6.42a46.88,46.88,0,0,1-27.41-16.54c-9.36-11.77-11.82-23.71-11.82-37V337.53l29,6.16v73.38c0,16.54,10,24.26,19.17,26.2s19.39-1.47,19.39-18V351.88l29,6.16V479.41Z"/><path class="cls-29" d="M107.24,53.15"/><path class="cls-30" d="M88.56,98.26,68.5,154.33,108,162.72Zm37,124.81-9.36-31.34-56.38-12-9.59,27.32L17.9,200.19,75.63,46.6l24.29,5.16,58,178.18Z"/><path class="cls-30" d="M242.79,248V174.61c0-16.54-10-24.26-19.17-26.21s-19.39,1.47-19.39,18v73.38l-29-6.16V112.27l28.3,6v11.19c7.58-6.78,18.28-8.7,29-6.42A46.88,46.88,0,0,1,260,139.59c9.36,11.77,11.81,23.71,11.81,37v77.57Z"/><path class="cls-30" d="M346.65,174.56C329.27,170.86,327,185.3,327,205.1s2.23,35.41,19.61,39.11,19.84-10.93,19.84-30.73S364,178.25,346.65,174.56Zm20.51,99.86V263c-8,7.61-16.49,9.31-28.75,6.7-11.37-2.42-22.07-8.88-28.53-17-11.59-14.58-11.81-35.59-11.81-53.76s.22-38.86,11.81-48.51c6.46-5.38,16.94-7.35,28.3-4.93,11.82,2.51,20.73,7.67,28.31,18.13V108.42l29,6.16V280.44Z"/><path class="cls-30" d="M491.08,212.48c-4.46-5.61-8.25-9-15.38-10.49-8.91-1.9-18.72,3-18.72,18.38v73.15l-29-6.16V166l28.31,6v11.64c5.57-5.8,16.72-9.49,29.2-6.83,11.36,2.41,19.39,7.15,27.41,17.24Z"/><path class="cls-30" d="M586.7,236.06a26.57,26.57,0,0,0-19.39-16.7c-9.81-2.08-16.27,1.9-19.39,8.46a30.4,30.4,0,0,0-2.68,12.48l44.13,9.38A39.3,39.3,0,0,0,586.7,236.06Zm-41.46,25c0,15.61,9.14,29,25.41,32.42,12.7,2.7,18.94.3,26.3-5.82l17.61,21.68c-11.82,9.83-23.18,14.17-44.13,9.72-27.42-5.83-53.72-24.46-53.72-73.62,0-39.6,20.51-57.6,50.6-51.21,32.31,6.87,50.59,35.45,50.59,68.76v13.51Z"/><polygon class="cls-30" points="759.43 357.8 735.58 352.74 711.29 271.4 686.99 342.41 663.14 337.34 627.48 208.39 658.24 214.93 676.96 293.92 700.59 223.93 721.76 228.43 745.61 308.51 764.33 237.48 794.87 243.97 759.43 357.8"/><polygon class="cls-30" points="856.38 378.41 856.38 352.32 924.14 255.84 859.28 242.05 859.28 213.17 960.69 234.72 960.69 260.35 892.71 357.25 960.69 371.7 960.69 400.58 856.38 378.41"/><path class="cls-30" d="M1052.52,420.1V346c0-16.07-9.81-23.51-19-25.46s-18.72,1.62-18.72,17.46V412.1l-29-6.16V240.08l29,6.15v55.68c7.8-6.73,17.61-8.84,27.86-6.66,25.41,5.4,38.78,26.88,38.78,52.51v78.5Z"/><path class="cls-30" d="M1170.42,355a22.84,22.84,0,0,0-13.6-8.25c-5.79-1.23-10-.27-13.37,2.52-6,5-6.69,15.35-6.69,27.93s.67,23.44,6.69,31a22.22,22.22,0,0,0,13.37,8.21c5.8,1.23,10.25.31,13.6-2.47,6-5,6.68-15.59,6.68-28.17S1176.44,362.58,1170.42,355Zm22.51,81.43c-7.13,6.4-19,10.88-36.11,7.23a59.87,59.87,0,0,1-35.88-22.54c-10.48-13.64-13.15-27.95-13.15-50.08,0-21.9,2.67-35.07,13.15-44.26,7.13-6.4,18.72-10.93,35.88-7.28a60.57,60.57,0,0,1,36.11,22.58c10.47,13.64,13.15,28,13.15,49.85C1206.08,414.07,1203.4,427.25,1192.93,436.44Z"/><path class="cls-30" d="M1300.58,472.83V461.65c-7.58,6.77-18.27,8.69-29,6.42a46.93,46.93,0,0,1-27.42-16.54c-9.36-11.78-11.81-23.71-11.81-37V337l29,6.16V416.5c0,16.54,10,24.27,19.16,26.21s19.39-1.47,19.39-18V351.32l29,6.16V478.85Z"/><path class="cls-30" d="M99.05,52.59"/><path class="cls-31" d="M81.4,97.43,61.34,153.5l39.45,8.39Zm37,124.81L109,190.9l-56.39-12-9.59,27.31-32.31-6.86L68.47,45.76l24.3,5.17,58,178.18Z"/><path class="cls-31" d="M235.63,247.16V173.78c0-16.54-10-24.27-19.17-26.21s-19.39,1.47-19.39,18V239l-29-6.16V111.43l28.31,6v11.18c7.57-6.77,18.27-8.69,29-6.42a47,47,0,0,1,27.41,16.54c9.37,11.78,11.82,23.71,11.82,37v77.57Z"/><path class="cls-31" d="M339.5,173.72c-17.39-3.69-19.62,10.74-19.62,30.54s2.23,35.42,19.62,39.12,19.83-10.93,19.83-30.73S356.88,177.42,339.5,173.72ZM360,273.59V262.18c-8,7.61-16.49,9.3-28.75,6.7-11.37-2.42-22.07-8.89-28.53-17-11.59-14.58-11.81-35.59-11.81-53.76s.22-38.86,11.81-48.51c6.46-5.38,16.94-7.35,28.31-4.93,11.81,2.51,20.73,7.67,28.3,18.13V107.59l29,6.16V279.61Z"/><path class="cls-31" d="M483.92,211.64c-4.45-5.6-8.24-9-15.38-10.49-8.91-1.89-18.72,3-18.72,18.39v73.14l-29-6.16V165.16l28.3,6v11.65c5.58-5.8,16.72-9.49,29.2-6.84,11.37,2.42,19.39,7.15,27.42,17.24Z"/><path class="cls-31" d="M579.54,235.23a26.51,26.51,0,0,0-19.39-16.7c-9.81-2.09-16.27,1.9-19.39,8.46a30.67,30.67,0,0,0-2.68,12.47l44.13,9.38A39.25,39.25,0,0,0,579.54,235.23Zm-41.46,25c0,15.6,9.14,29,25.41,32.42,12.71,2.7,19,.3,26.3-5.83l17.61,21.68c-11.81,9.84-23.18,14.18-44.13,9.73-27.42-5.83-53.71-24.47-53.71-73.62,0-39.6,20.5-57.61,50.59-51.21,32.32,6.87,50.59,35.45,50.59,68.76v13.51Z"/><polygon class="cls-31" points="752.27 356.97 728.42 351.9 704.13 270.56 679.84 341.57 655.99 336.5 620.33 207.56 651.08 214.1 669.81 293.09 693.43 223.1 714.61 227.6 738.45 307.68 757.18 236.65 787.71 243.14 752.27 356.97"/><polygon class="cls-31" points="849.23 377.58 849.23 351.49 916.98 255.01 852.12 241.22 852.12 212.33 953.53 233.89 953.53 259.51 885.55 356.42 953.53 370.86 953.53 399.75 849.23 377.58"/><path class="cls-31" d="M1045.36,419.27V345.19c0-16.07-9.81-23.52-18.95-25.46s-18.72,1.61-18.72,17.45v74.08l-29-6.16V239.24l29,6.16v55.68c7.8-6.73,17.61-8.84,27.86-6.66,25.41,5.4,38.78,26.88,38.78,52.5v78.51Z"/><path class="cls-31" d="M1163.26,354.18a22.76,22.76,0,0,0-13.59-8.25c-5.8-1.23-10-.27-13.38,2.52-6,5-6.68,15.35-6.68,27.93s.66,23.43,6.68,31a22.19,22.19,0,0,0,13.38,8.2c5.79,1.23,10.25.32,13.59-2.47,6-5,6.69-15.58,6.69-28.16S1169.28,361.75,1163.26,354.18Zm22.51,81.42c-7.13,6.41-18.94,10.89-36.1,7.24a59.87,59.87,0,0,1-35.89-22.54c-10.47-13.64-13.15-27.95-13.15-50.08,0-21.9,2.68-35.08,13.15-44.26,7.13-6.41,18.72-10.93,35.89-7.28a60.46,60.46,0,0,1,36.1,22.58c10.48,13.64,13.15,27.95,13.15,49.85C1198.92,413.24,1196.25,426.42,1185.77,435.6Z"/><path class="cls-31" d="M1293.43,472V460.82c-7.58,6.77-18.28,8.69-29,6.42A46.94,46.94,0,0,1,1237,450.69c-9.36-11.77-11.82-23.71-11.82-37V336.13l29,6.16v73.38c0,16.54,10,24.26,19.17,26.21s19.39-1.47,19.39-18V350.49l29,6.16V478Z"/><path class="cls-31" d="M91.89,51.76"/><path class="cls-32" d="M75.73,96.56,55.67,152.63,95.12,161Zm37,124.8L103.37,190,47,178l-9.59,27.32L5.08,198.48,62.8,44.89l24.3,5.16,58,178.18Z"/><path class="cls-32" d="M230,246.28V172.9c0-16.54-10-24.26-19.17-26.2s-19.39,1.47-19.39,18v73.37l-29-6.15V110.56l28.31,6v11.18c7.57-6.78,18.27-8.7,29-6.42a46.88,46.88,0,0,1,27.41,16.54c9.37,11.77,11.82,23.71,11.82,37v77.57Z"/><path class="cls-32" d="M333.83,172.85c-17.39-3.7-19.62,10.74-19.62,30.54s2.23,35.42,19.62,39.11,19.83-10.93,19.83-30.73S351.21,176.54,333.83,172.85Zm20.5,99.87V261.3c-8,7.61-16.49,9.31-28.75,6.7-11.37-2.41-22.07-8.88-28.53-17-11.59-14.58-11.81-35.59-11.81-53.76s.22-38.85,11.81-48.5c6.46-5.39,16.94-7.35,28.31-4.94,11.81,2.51,20.73,7.67,28.3,18.13V106.71l29,6.16V278.73Z"/><path class="cls-32" d="M478.25,210.77c-4.45-5.61-8.24-9-15.38-10.49-8.91-1.9-18.72,3-18.72,18.38v73.15l-29-6.16V164.28l28.3,6V182c5.58-5.81,16.72-9.5,29.2-6.84,11.37,2.41,19.39,7.15,27.42,17.24Z"/><path class="cls-32" d="M573.87,234.35a26.55,26.55,0,0,0-19.39-16.7c-9.81-2.08-16.27,1.9-19.39,8.46a30.76,30.76,0,0,0-2.68,12.48L576.54,248A39.3,39.3,0,0,0,573.87,234.35Zm-41.46,25c0,15.61,9.14,29,25.41,32.42,12.71,2.7,18.95.3,26.3-5.82l17.61,21.68c-11.81,9.83-23.18,14.17-44.13,9.72-27.42-5.83-53.71-24.46-53.71-73.62,0-39.6,20.5-57.6,50.59-51.21,32.32,6.87,50.59,35.45,50.59,68.76v13.51Z"/><polygon class="cls-32" points="746.6 356.1 722.75 351.03 698.46 269.69 674.17 340.7 650.32 335.63 614.66 206.68 645.41 213.22 664.14 292.21 687.76 222.22 708.93 226.72 732.78 306.8 751.51 235.77 782.04 242.26 746.6 356.1"/><polygon class="cls-32" points="843.55 376.7 843.55 350.61 911.31 254.13 846.45 240.34 846.45 211.46 947.86 233.01 947.86 258.64 879.88 355.54 947.86 369.99 947.86 398.88 843.55 376.7"/><path class="cls-32" d="M1039.69,418.39V344.32c0-16.08-9.81-23.52-19-25.46S1002,320.47,1002,336.31v74.08l-29-6.16V238.37l29,6.16V300.2c7.8-6.73,17.61-8.83,27.86-6.66,25.41,5.4,38.78,26.88,38.78,52.51v78.5Z"/><path class="cls-32" d="M1157.59,353.3a22.86,22.86,0,0,0-13.59-8.25c-5.8-1.23-10-.26-13.38,2.52-6,5-6.68,15.35-6.68,27.93s.66,23.44,6.68,31a22.23,22.23,0,0,0,13.38,8.2c5.79,1.23,10.25.31,13.59-2.47,6-5,6.69-15.59,6.69-28.16S1163.61,360.87,1157.59,353.3Zm22.51,81.43c-7.13,6.4-18.94,10.88-36.1,7.23a59.9,59.9,0,0,1-35.89-22.53c-10.47-13.64-13.15-28-13.15-50.09,0-21.89,2.68-35.07,13.15-44.26,7.13-6.4,18.72-10.93,35.89-7.28a60.55,60.55,0,0,1,36.1,22.58c10.48,13.64,13.15,28,13.15,49.85C1193.25,412.36,1190.58,425.54,1180.1,434.73Z"/><path class="cls-32" d="M1287.76,471.12V459.94c-7.58,6.78-18.28,8.69-29,6.42a46.88,46.88,0,0,1-27.41-16.54c-9.36-11.78-11.82-23.71-11.82-37V335.26l29,6.16V414.8c0,16.54,10,24.26,19.17,26.2s19.39-1.47,19.39-18V349.61l29,6.16V477.14Z"/><path class="cls-32" d="M86.22,50.88"/><path class="cls-33" d="M72,95.86,51.94,151.94l39.45,8.38Zm37,124.81-9.37-31.34-56.38-12-9.59,27.32L1.34,197.79,59.07,44.2l24.29,5.16,58,178.18Z"/><path class="cls-33" d="M226.23,245.59V172.21c0-16.54-10-24.26-19.17-26.21s-19.39,1.47-19.39,18v73.38l-29-6.16V109.87l28.3,6v11.19c7.58-6.78,18.28-8.7,29-6.42a46.88,46.88,0,0,1,27.41,16.54c9.36,11.77,11.81,23.71,11.81,37v77.57Z"/><path class="cls-33" d="M330.09,172.16c-17.38-3.7-19.61,10.74-19.61,30.54s2.23,35.41,19.61,39.11,19.84-10.93,19.84-30.73S347.48,175.85,330.09,172.16ZM350.6,272V260.61c-8,7.61-16.49,9.31-28.75,6.7-11.37-2.42-22.07-8.88-28.53-17-11.59-14.58-11.81-35.59-11.81-53.76s.22-38.86,11.81-48.51c6.46-5.38,16.94-7.34,28.3-4.93,11.82,2.51,20.73,7.67,28.31,18.13V106l29,6.16V278Z"/><path class="cls-33" d="M474.52,210.08c-4.46-5.61-8.25-9-15.38-10.49-8.91-1.9-18.72,3-18.72,18.38v73.15l-29-6.16V163.59l28.3,6v11.64c5.57-5.8,16.72-9.49,29.2-6.83,11.37,2.41,19.39,7.15,27.41,17.24Z"/><path class="cls-33" d="M570.14,233.66A26.57,26.57,0,0,0,550.75,217c-9.81-2.08-16.27,1.9-19.39,8.46a30.43,30.43,0,0,0-2.68,12.48l44.13,9.38A39.3,39.3,0,0,0,570.14,233.66Zm-41.46,25c0,15.61,9.14,29,25.41,32.42,12.7,2.7,18.94.3,26.3-5.82L598,306.91c-11.82,9.83-23.18,14.17-44.13,9.72-27.42-5.83-53.72-24.46-53.72-73.62,0-39.6,20.51-57.6,50.6-51.21,32.31,6.87,50.59,35.45,50.59,68.76v13.51Z"/><polygon class="cls-33" points="742.87 355.4 719.02 350.33 694.73 269 670.43 340.01 646.59 334.94 610.92 205.99 641.68 212.53 660.4 291.52 684.03 221.53 705.2 226.03 729.05 306.11 747.77 235.08 778.31 241.57 742.87 355.4"/><polygon class="cls-33" points="839.82 376.01 839.82 349.92 907.58 253.44 842.72 239.65 842.72 210.77 944.13 232.32 944.13 257.95 876.15 354.85 944.13 369.3 944.13 398.18 839.82 376.01"/><path class="cls-33" d="M1036,417.7V343.62c0-16.07-9.81-23.51-19-25.45s-18.72,1.61-18.72,17.45V409.7l-29-6.16V237.68l29,6.15v55.68c7.8-6.73,17.61-8.84,27.86-6.66,25.41,5.4,38.78,26.88,38.78,52.51v78.5Z"/><path class="cls-33" d="M1153.86,352.61a22.81,22.81,0,0,0-13.6-8.25c-5.79-1.23-10-.26-13.37,2.52-6,5-6.69,15.35-6.69,27.93s.67,23.44,6.69,31a22.25,22.25,0,0,0,13.37,8.2c5.8,1.23,10.26.31,13.6-2.47,6-5,6.69-15.59,6.69-28.17S1159.88,360.18,1153.86,352.61ZM1176.37,434c-7.13,6.4-18.95,10.88-36.11,7.23a59.87,59.87,0,0,1-35.88-22.54c-10.48-13.64-13.15-28-13.15-50.08,0-21.9,2.67-35.07,13.15-44.26,7.13-6.4,18.72-10.93,35.88-7.28a60.57,60.57,0,0,1,36.11,22.58c10.48,13.64,13.15,28,13.15,49.85C1189.52,411.67,1186.85,424.85,1176.37,434Z"/><path class="cls-33" d="M1284,470.43V459.25c-7.57,6.77-18.27,8.69-29,6.42a46.93,46.93,0,0,1-27.42-16.54c-9.36-11.78-11.81-23.71-11.81-37V334.57l29,6.16V414.1c0,16.54,10,24.27,19.16,26.21s19.39-1.47,19.39-18V348.92l29,6.16V476.45Z"/><path class="cls-33" d="M82.49,50.19"/><path class="cls-34" d="M70.65,95.58,50.59,151.65,90,160Zm37,124.81-9.36-31.34-56.39-12-9.58,27.32L0,197.51,57.73,43.92,82,49.08l58,178.18Z"/><path class="cls-34" d="M224.89,245.31V171.93c0-16.54-10-24.26-19.17-26.21s-19.39,1.47-19.39,18v73.38l-29-6.16V109.59l28.31,6v11.19c7.58-6.78,18.27-8.7,29-6.43a47,47,0,0,1,27.42,16.55c9.36,11.77,11.81,23.71,11.81,37v77.58Z"/><path class="cls-34" d="M328.75,171.88c-17.39-3.7-19.61,10.74-19.61,30.54s2.22,35.41,19.61,39.11,19.84-10.93,19.84-30.73S346.13,175.57,328.75,171.88Zm20.5,99.86V260.33c-8,7.61-16.49,9.31-28.75,6.7-11.36-2.42-22.06-8.88-28.53-17-11.59-14.58-11.81-35.59-11.81-53.76s.22-38.86,11.81-48.51c6.47-5.38,16.94-7.35,28.31-4.93,11.81,2.51,20.73,7.67,28.31,18.13V105.74l29,6.16V277.76Z"/><path class="cls-34" d="M473.18,209.8c-4.46-5.61-8.25-9-15.38-10.49-8.92-1.9-18.72,3-18.72,18.38v73.15l-29-6.16V163.31l28.31,6V181c5.57-5.8,16.71-9.49,29.19-6.84C479,176.55,487,181.28,495,191.38Z"/><path class="cls-34" d="M568.79,233.38a26.55,26.55,0,0,0-19.39-16.7c-9.8-2.08-16.27,1.9-19.39,8.46a30.52,30.52,0,0,0-2.67,12.48L571.47,247A39.31,39.31,0,0,0,568.79,233.38Zm-41.45,25c0,15.61,9.13,29,25.41,32.42,12.7,2.7,18.94.3,26.29-5.82l17.61,21.68c-11.81,9.83-23.18,14.17-44.13,9.72-27.41-5.83-53.71-24.46-53.71-73.62,0-39.6,20.5-57.6,50.59-51.21C581.72,198.39,600,227,600,260.28v13.51Z"/><path class="cls-34" d="M741.53,355.12l-23.85-5.07-24.3-81.33-24.29,71-23.85-5.07-35.66-129,30.76,6.54,18.72,79,23.62-70,21.18,4.5,23.85,80.08,18.72-71L777,241.29Z"/><path class="cls-34" d="M838.48,375.73V349.64l67.75-96.48-64.86-13.79V210.49L942.79,232v25.63l-68,96.9,68,14.45V397.9Z"/><path class="cls-34" d="M1034.61,417.42V343.34c0-16.07-9.8-23.51-18.94-25.46S997,319.5,997,335.34v74.07l-29-6.15V237.4l29,6.15v55.68c7.8-6.73,17.6-8.84,27.86-6.66,25.4,5.4,38.78,26.88,38.78,52.51v78.5Z"/><path class="cls-34" d="M1152.51,352.33a22.81,22.81,0,0,0-13.59-8.25c-5.8-1.23-10-.27-13.37,2.52-6,5-6.69,15.35-6.69,27.93s.67,23.44,6.69,31a22.19,22.19,0,0,0,13.37,8.21c5.79,1.23,10.25.31,13.59-2.47,6-5,6.69-15.59,6.69-28.17S1158.53,359.9,1152.51,352.33ZM1175,433.76c-7.14,6.4-19,10.88-36.11,7.23A59.93,59.93,0,0,1,1103,418.45c-10.47-13.64-13.14-27.95-13.14-50.08,0-21.9,2.67-35.07,13.14-44.26,7.14-6.41,18.73-10.93,35.89-7.28A60.56,60.56,0,0,1,1175,339.41c10.47,13.64,13.14,27.95,13.14,49.85C1188.17,411.39,1185.5,424.57,1175,433.76Z"/><path class="cls-34" d="M1282.68,470.15V459c-7.58,6.77-18.28,8.69-29,6.42a47,47,0,0,1-27.41-16.54c-9.36-11.78-11.81-23.71-11.81-37V334.29l29,6.15v73.38c0,16.54,10,24.27,19.17,26.21s19.39-1.47,19.39-18V348.64l29,6.16V476.17Z"/><path class="cls-34" d="M81.15,49.91"/></g></g></svg>